<svg xmlns="http://www.w3.org/2000/svg" xmlns:xlink="http://www.w3.org/1999/xlink" width="727.852" height="727.852" viewBox="0 0 727.852 727.852"><defs><style>.a,.c,.d,.e{opacity:0.8;}.a{mix-blend-mode:screen;fill:url(#a);}.a,.b,.f{isolation:isolate;}.b{opacity:0.08;mix-blend-mode:luminosity;}.c{fill:url(#b);}.d{fill:#ff648d;}.e{fill:url(#c);}.f{clip-path:url(#d);}.g{fill:#8d6eff;}.h{fill:#fc527e;}</style><linearGradient id="a" x1="0.5" x2="0.5" y2="1" gradientUnits="objectBoundingBox"><stop offset="0" stop-color="#8d6eff"/><stop offset="1" stop-color="#fc527e"/></linearGradient><linearGradient id="b" x1="0.439" y1="0.302" x2="0.459" y2="0.702" gradientUnits="objectBoundingBox"><stop offset="0" stop-color="#8d6eff"/><stop offset="1" stop-color="#ff648d"/></linearGradient><linearGradient id="c" x1="0.5" x2="0.5" y2="1" gradientUnits="objectBoundingBox"><stop offset="0" stop-color="#8d6eff"/><stop offset="1" stop-color="#8462ff"/></linearGradient><clipPath id="d"><rect class="a" width="236.79" height="790.916" rx="118.395" transform="translate(726.698 559.262) rotate(135)"/></clipPath></defs><g class="b" transform="translate(1931.44 3252.418)"><rect class="c" width="236.79" height="790.916" rx="118.395" transform="translate(-1204.742 -2693.156) rotate(135)"/><path class="d" d="M118.4,0a118.4,118.4,0,0,1,118.4,118.4V513.046a118.4,118.4,0,0,1-236.79,0V118.4A118.4,118.4,0,0,1,118.4,0Z" transform="translate(-1883.256 -3204.235)"/><rect class="e" width="236.79" height="631.441" rx="118.395" transform="translate(-1487.46 -3204.235)"/><g class="f" transform="translate(-1930.286 -3251.264)"><rect class="g" width="236.79" height="631.441" rx="118.395" transform="translate(441.68 47.03)"/><rect class="h" width="236.79" height="631.441" rx="118.395" transform="translate(47.031 47.03)"/></g></g></svg>