<svg xmlns="http://www.w3.org/2000/svg" xmlns:xlink="http://www.w3.org/1999/xlink" width="203" height="232.283" viewBox="0 0 203 232.283"><defs><style>.a,.c,.d,.e{opacity:0.8;}.a{mix-blend-mode:screen;fill:url(#a);}.a,.f{isolation:isolate;}.b{fill:#fff;stroke:#eaeaea;}.c{fill:url(#d);}.d{fill:#ff648d;}.e{fill:url(#e);}.f{clip-path:url(#f);}.g,.i{fill:#8d6eff;}.h{fill:#fc527e;}.i{stroke:#8d6eff;stroke-width:0.3px;}.j{stroke:none;}.k{fill:none;}.l{filter:url(#b);}</style><linearGradient id="a" x1="0.5" x2="0.5" y2="1" gradientUnits="objectBoundingBox"><stop offset="0" stop-color="#8d6eff"/><stop offset="1" stop-color="#ff648d"/></linearGradient><filter id="b" x="0" y="0" width="203" height="203" filterUnits="userSpaceOnUse"><feOffset dy="5" input="SourceAlpha"/><feGaussianBlur stdDeviation="10.5" result="c"/><feFlood flood-opacity="0.09"/><feComposite operator="in" in2="c"/><feComposite in="SourceGraphic"/></filter><linearGradient id="d" x1="0.439" y1="0.302" x2="0.459" y2="0.702" xlink:href="#a"/><linearGradient id="e" x1="0.5" x2="0.5" y2="1" gradientUnits="objectBoundingBox"><stop offset="0" stop-color="#8d6eff"/><stop offset="1" stop-color="#8462ff"/></linearGradient><clipPath id="f"><rect class="a" width="28.254" height="94.373" rx="14.127" transform="translate(86.71 66.732) rotate(135)"/></clipPath></defs><g transform="translate(-858.5 -23114.5)"><g transform="translate(889.651 23140.324)"><g class="l" transform="matrix(1, 0, 0, 1, -31.15, -25.82)"><g class="b" transform="translate(31.5 26.5)"><rect class="j" width="140" height="140" rx="25"/><rect class="k" x="0.5" y="0.5" width="139" height="139" rx="24.5"/></g></g><g transform="translate(27.006 26.411)"><rect class="c" width="28.254" height="94.373" rx="14.127" transform="translate(86.71 66.732) rotate(135)"/><path class="d" d="M14.127,0A14.127,14.127,0,0,1,28.254,14.127v47.09A14.127,14.127,0,1,1,0,61.217V14.127A14.127,14.127,0,0,1,14.127,0Z" transform="translate(5.612 5.612)"/><rect class="e" width="28.254" height="75.344" rx="14.127" transform="translate(52.838 5.612)"/><g class="f" transform="translate(0 0)"><rect class="g" width="28.254" height="75.344" rx="14.127" transform="translate(52.702 5.612)"/><rect class="h" width="28.254" height="75.344" rx="14.127" transform="translate(5.612 5.612)"/></g></g></g><g transform="translate(890 23318.672)"><g transform="translate(83.783 0)"><path class="i" d="M105.28,41.709a4.827,4.827,0,0,0,.639,1.6,5.527,5.527,0,0,0,1.957,1.865,8.608,8.608,0,0,0,2.7.969,16.961,16.961,0,0,0,3.132.28,10.016,10.016,0,0,0,5.219-1.194,3.7,3.7,0,0,0,1.976-3.318,3.06,3.06,0,0,0-1.249-2.628,8.769,8.769,0,0,0-3.709-1.323l-6.04-1.007a18.572,18.572,0,0,1-2.759-.634,10.027,10.027,0,0,1-2.48-1.173,6,6,0,0,1-1.92-2.051A6.117,6.117,0,0,1,102,29.978a7.094,7.094,0,0,1,2.815-5.892q2.815-2.2,7.847-2.2a18.775,18.775,0,0,1,4.083.429,11.7,11.7,0,0,1,3.522,1.4,7.624,7.624,0,0,1,2.591,2.591A8.528,8.528,0,0,1,124,30.238h-3.951a6.566,6.566,0,0,0-.523-1.771,4.571,4.571,0,0,0-1.23-1.528,6.468,6.468,0,0,0-2.367-1.175,13.565,13.565,0,0,0-3.785-.446,10.192,10.192,0,0,0-2.236.242,6.583,6.583,0,0,0-1.976.783,4.344,4.344,0,0,0-1.434,1.379,3.526,3.526,0,0,0-.54,1.957,2.827,2.827,0,0,0,1.006,2.2,6.863,6.863,0,0,0,3.355,1.305l6.525,1.119h.075q1.3.26,2.478.578a10.71,10.71,0,0,1,2.461,1.044A6.261,6.261,0,0,1,124,37.937a5.627,5.627,0,0,1,.857,3.187,8.188,8.188,0,0,1-.969,4.12,7.566,7.566,0,0,1-2.628,2.721,11.476,11.476,0,0,1-3.672,1.455,20.059,20.059,0,0,1-4.176.429,21.423,21.423,0,0,1-4.568-.467,12.094,12.094,0,0,1-3.877-1.547,7.9,7.9,0,0,1-2.759-2.926,9.122,9.122,0,0,1-1.025-4.493H103.5" transform="translate(-101.184 -21.887)"/><path class="i" d="M101.278,35.974a1.469,1.469,0,0,1,1.468-1.468h1.02a1.469,1.469,0,0,1,1.468,1.468v6.078" transform="translate(-101.14 -15.979)"/></g><path class="i" d="M49.691,23.564,65.815,43.52h.075V22.344h1.982l1.97,1.812V48.964H65.257L48.145,27.788H48.07V48.964H44.118V22.344h3.129" transform="translate(-44.119 -21.673)"/><path class="i" d="M68.351,23.812v15.57a6.126,6.126,0,0,0,2.144,5.145,9.422,9.422,0,0,0,5.946,1.678,9.425,9.425,0,0,0,5.946-1.678,6.131,6.131,0,0,0,2.144-5.145V22.344h2.041l.275,2.271,1.637.044V38.9q0,10.736-12.042,10.737T64.4,38.9V22.344h2.647" transform="translate(-34.623 -21.673)"/><g transform="translate(57.617 0.671)"><path class="i" d="M99.955,44.218,92.244,32.48h3.961L103.9,44.218Z" transform="translate(-79.204 -17.598)"/><path class="i" d="M97.64,37.668H87.314v11.3H83.362V22.344H99.839a8.5,8.5,0,0,1,3.318.6,5.876,5.876,0,0,1,2.276,1.621,6.882,6.882,0,0,1,1.267,2.274,8.272,8.272,0,0,1,.41,2.591,7.6,7.6,0,0,1-1.155,4.137C104.065,36.59,100.83,37.668,97.64,37.668Zm.709-3.43a6.383,6.383,0,0,0,2.33-.374,3.772,3.772,0,0,0,1.49-.987,3.675,3.675,0,0,0,.765-1.342,5.141,5.141,0,0,0,.223-1.511,4.1,4.1,0,0,0-1.192-3.113,4.9,4.9,0,0,0-3.5-1.136H87.314v8.463Z" transform="translate(-83.362 -22.344)"/></g><path class="i" d="M140.786,24.134v24.83h-3.952V22.344H139" transform="translate(-0.71 -21.673)"/><rect class="i" width="3.956" height="9.015" rx="1" transform="translate(21.772 0.671)"/><rect class="i" width="3.956" height="9.015" rx="1" transform="translate(29.774 0.671)"/><rect class="i" width="3.956" height="9.015" rx="1" transform="translate(49.903 0.671)"/><rect class="i" width="3.956" height="9.015" rx="1" transform="translate(136.123 0.671)"/><g transform="translate(109.531 0)"><path class="i" d="M122.817,41.709a4.89,4.89,0,0,0,.639,1.6,5.526,5.526,0,0,0,1.957,1.865,8.608,8.608,0,0,0,2.7.969,16.961,16.961,0,0,0,3.132.28,10.012,10.012,0,0,0,5.219-1.194,3.7,3.7,0,0,0,1.976-3.318,3.06,3.06,0,0,0-1.249-2.628,8.77,8.77,0,0,0-3.709-1.323l-6.04-1.007a18.571,18.571,0,0,1-2.759-.634,10.027,10.027,0,0,1-2.48-1.173,5.981,5.981,0,0,1-1.919-2.051,6.1,6.1,0,0,1-.746-3.113,7.094,7.094,0,0,1,2.815-5.892q2.814-2.2,7.847-2.2a18.775,18.775,0,0,1,4.083.429,11.7,11.7,0,0,1,3.522,1.4A7.624,7.624,0,0,1,140.4,26.3a8.528,8.528,0,0,1,1.136,3.933h-3.951a6.565,6.565,0,0,0-.523-1.771,4.554,4.554,0,0,0-1.23-1.528,6.468,6.468,0,0,0-2.367-1.175,13.565,13.565,0,0,0-3.785-.446,10.2,10.2,0,0,0-2.236.242,6.6,6.6,0,0,0-1.976.783,4.344,4.344,0,0,0-1.434,1.379,3.526,3.526,0,0,0-.54,1.957,2.827,2.827,0,0,0,1.006,2.2,6.863,6.863,0,0,0,3.355,1.305l6.525,1.119h.075q1.3.26,2.478.578a10.71,10.71,0,0,1,2.461,1.044,6.248,6.248,0,0,1,2.144,2.013,5.627,5.627,0,0,1,.857,3.187,8.188,8.188,0,0,1-.969,4.12,7.554,7.554,0,0,1-2.628,2.721,11.463,11.463,0,0,1-3.672,1.455,20.059,20.059,0,0,1-4.176.429,21.433,21.433,0,0,1-4.568-.467,12.1,12.1,0,0,1-3.878-1.547,7.9,7.9,0,0,1-2.759-2.926,9.138,9.138,0,0,1-1.025-4.493h2.314" transform="translate(-118.721 -21.887)"/><path class="i" d="M118.815,35.974a1.469,1.469,0,0,1,1.468-1.468h1.02a1.469,1.469,0,0,1,1.468,1.468v6.078" transform="translate(-118.677 -15.979)"/></g><path class="i" d="M47.432,27.85h-.561A2.754,2.754,0,0,1,44.118,25.1h0a2.754,2.754,0,0,1,2.753-2.753h.561c1.492.115,2.562,1.474,3.117,2.282" transform="translate(-44.119 -21.673)"/></g></g></svg>