<svg xmlns="http://www.w3.org/2000/svg" xmlns:xlink="http://www.w3.org/1999/xlink" width="214" height="213" viewBox="0 0 214 213"><defs><style>.a{fill:#fff;}.b{fill:#c9c9c9;}.c{fill:#818181;}.d{filter:url(#a);}</style><filter id="a" x="0" y="0" width="214" height="213" filterUnits="userSpaceOnUse"><feOffset dy="5" input="SourceAlpha"/><feGaussianBlur stdDeviation="10.5" result="b"/><feFlood flood-opacity="0.11"/><feComposite operator="in" in2="b"/><feComposite in="SourceGraphic"/></filter></defs><g transform="translate(-851.5 -7957.5)"><g transform="translate(-2 1941)"><g class="d" transform="matrix(1, 0, 0, 1, 853.5, 6016.5)"><path class="a" d="M26,0h99a26,26,0,0,1,26,26v98a26,26,0,0,1-26,26H26A26,26,0,0,1,0,124V26A26,26,0,0,1,26,0Z" transform="translate(31.5 26.5)"/></g></g><g transform="translate(484 305)"><rect class="b" width="57" height="88" rx="10" transform="translate(447 7709)"/><rect class="b" width="58" height="95" rx="10" transform="translate(524 7739) rotate(90)"/><path class="c" d="M10.949,26.589V20.333H4.693a4.692,4.692,0,1,1,0-9.384h6.256V4.692a4.692,4.692,0,0,1,9.384,0v6.257h6.256a4.692,4.692,0,1,1,0,9.384H20.333v6.256a4.692,4.692,0,1,1-9.384,0Z" transform="translate(460.359 7723.522)"/><path class="a" d="M10,0H21.853a10,10,0,0,1,10,10V29.5a0,0,0,0,1,0,0H0a0,0,0,0,1,0,0V10A10,10,0,0,1,10,0Z" transform="translate(459.831 7769.5)"/><rect class="c" width="6.793" height="11.322" rx="2" transform="translate(436.129 7752.845)"/><rect class="c" width="6.793" height="11.322" rx="2" transform="translate(508.594 7752.845)"/><rect class="c" width="6.793" height="11.322" rx="2" transform="translate(436.129 7773.225)"/><rect class="c" width="6.793" height="11.322" rx="2" transform="translate(508.594 7773.225)"/></g></g></svg>