<svg xmlns="http://www.w3.org/2000/svg" width="717.552" height="370.618" viewBox="0 0 717.552 370.618"><defs><style>.a{fill:#8d6eff;}.b{fill:#fff;}.c,.d,.f,.g,.h,.i,.j,.k,.l,.n{fill:none;}.c,.f,.g{stroke:#8d6eff;}.c,.g,.i,.j,.k{stroke-width:5px;}.d,.h,.l{stroke:#fff;}.d,.g,.i,.j,.l{stroke-linecap:round;}.d{stroke-width:3.7px;}.e{fill:#cdbfff;}.f{stroke-width:1.5px;}.h{stroke-width:4px;}.i,.j,.k{stroke:#000;}.i{stroke-linejoin:round;}.l{stroke-width:3px;}.m{stroke:none;}</style></defs><g transform="translate(-311 -8371)"><g transform="translate(462.568 8484)"><rect class="a" width="35" height="54" rx="7" transform="translate(16.432 0)"/><rect class="a" width="65" height="36" rx="7" transform="translate(0.432 18)"/><path class="b" d="M7.186,17.451V13.345H3.08a3.08,3.08,0,1,1,0-6.16H7.186V3.08a3.08,3.08,0,1,1,6.16,0V7.186h4.106a3.08,3.08,0,0,1,0,6.16H13.345v4.106a3.08,3.08,0,0,1-6.16,0Z" transform="translate(22.714 7.773)"/><path class="b" d="M7,0h5.321a7,7,0,0,1,7,7V17.835a0,0,0,0,1,0,0H0a0,0,0,0,1,0,0V7A7,7,0,0,1,7,0Z" transform="translate(23.16 37.423)"/><rect class="b" width="4.459" height="7.431" rx="2" transform="translate(6.811 27.019)"/><rect class="b" width="4.459" height="7.431" rx="2" transform="translate(54.371 27.019)"/><rect class="b" width="4.459" height="7.431" rx="2" transform="translate(6.811 40.395)"/><rect class="b" width="4.459" height="7.431" rx="2" transform="translate(54.371 40.395)"/></g><g transform="translate(629.289 8371)"><path class="a" d="M31.088,71.9a7.244,7.244,0,0,1-5.551-2.288C20.693,65.094,6.272,50.447,1.885,38.38A19.107,19.107,0,0,1,0,30.047C0,20.2,7.294,12.216,16.294,12.216a17.619,17.619,0,0,1,14.794,8.8v0l.033.055a18.61,18.61,0,0,1,15.587-8.857c9,0,16.292,7.983,16.292,17.832a19.133,19.133,0,0,1-1.771,8.094c-3.892,11.32-17.74,25.244-24.423,31.467A7.641,7.641,0,0,1,31.113,71.9h-.025v0Z" transform="translate(0 0)"/><path class="b" d="M8.975,21.8V16.668H3.847a3.847,3.847,0,0,1,0-7.693H8.975V3.847a3.847,3.847,0,0,1,7.693,0V8.975H21.8a3.847,3.847,0,1,1,0,7.693H16.668V21.8a3.847,3.847,0,1,1-7.693,0Z" transform="translate(18.137 29.58)"/></g><g transform="translate(311 8583)"><g transform="translate(0)"><circle class="a" cx="10.5" cy="10.5" r="10.5" transform="translate(32 0)"/><ellipse class="a" cx="10.5" cy="10" rx="10.5" ry="10" transform="translate(32 39)"/><line class="c" x1="18.055" y2="11.285" transform="translate(17.161 13.434)"/><line class="c" x1="19.97" y1="12.052" transform="translate(15.246 32.979)"/><ellipse class="a" cx="10" cy="10.5" rx="10" ry="10.5" transform="translate(0 18)"/></g></g><g transform="translate(971.734 8484)"><rect class="a" width="54" height="54" rx="7" transform="translate(0.266 0)"/><line class="d" y2="3.066" transform="translate(11.52 14.32)"/><line class="d" y2="3.066" transform="translate(11.52 25.78)"/><line class="d" y2="3.066" transform="translate(11.52 36.971)"/><line class="d" y2="3.066" transform="translate(21.519 14.32)"/><line class="d" y2="3.066" transform="translate(21.519 25.78)"/><line class="d" y2="3.066" transform="translate(21.519 36.971)"/><line class="d" y2="3.066" transform="translate(31.484 14.32)"/><line class="d" y2="3.066" transform="translate(31.484 25.78)"/><line class="d" y2="3.066" transform="translate(31.484 36.971)"/><line class="d" y2="3.066" transform="translate(41.306 14.32)"/><line class="d" y2="3.066" transform="translate(41.306 25.78)"/><line class="d" y2="3.066" transform="translate(41.306 36.971)"/></g><g transform="translate(965.341 8375)"><path class="e" d="M9.532,10.827a5,5,0,0,1,9.2,0L25.312,26.3a5,5,0,0,1-4.6,6.956H7.558a5,5,0,0,1-4.6-6.956Z" transform="translate(24.481 78.104) rotate(-150)"/><rect class="a" width="24.942" height="42.461" rx="6" transform="translate(35.528 5.76) rotate(30)"/><path class="e" d="M7,0H17.942a7,7,0,0,1,7,7v6.3a0,0,0,0,1,0,0H0a0,0,0,0,1,0,0V7A7,7,0,0,1,7,0Z" transform="translate(38.854 0) rotate(30)"/><path class="a" d="M4.03,1.987a3.371,3.371,0,0,1,6.147,0l2.068,5.091,2.1,5.053L0,11.775,1.889,7.411Z" transform="translate(20.814 70.395) rotate(-150)"/></g><g transform="translate(315 8382)"><g transform="translate(0 0)"><rect class="a" width="50" height="57" rx="7" transform="translate(0 0)"/><path class="b" d="M7.318,17.772V13.591H3.137a3.137,3.137,0,1,1,0-6.273H7.318V3.137a3.137,3.137,0,1,1,6.273,0V7.318h4.181a3.137,3.137,0,0,1,0,6.273H13.591v4.181a3.137,3.137,0,0,1-6.273,0Z" transform="translate(14.614 8.73)"/><rect class="b" width="25" height="3" transform="translate(13 37)"/><rect class="b" width="25" height="4" transform="translate(13 43)"/></g></g><g transform="translate(472.913 8380)"><rect class="a" width="49" height="11" rx="5.5" transform="translate(0 8.073)"/><rect class="b" width="6.598" height="14.846" rx="3.299" transform="translate(9.486 0.825)"/><rect class="b" width="6.598" height="14.846" rx="3.299" transform="translate(34.229 0.825)"/><rect class="a" width="49" height="40" rx="7" transform="translate(0 21.073)"/><rect class="a" width="6.598" height="11.547" rx="3.299" transform="translate(9.486 0)"/><rect class="a" width="6.598" height="11.547" rx="3.299" transform="translate(34.229 0)"/><rect class="b" width="3.299" height="6.598" rx="1.65" transform="translate(9.568 33.819)"/><rect class="b" width="3.299" height="6.598" rx="1.65" transform="translate(9.568 43.716)"/><rect class="b" width="3.299" height="6.598" rx="1.65" transform="translate(18.971 33.819)"/><rect class="b" width="3.299" height="6.598" rx="1.65" transform="translate(18.971 43.716)"/><rect class="b" width="3.299" height="6.598" rx="1.65" transform="translate(28.208 33.819)"/><rect class="b" width="3.299" height="6.598" rx="1.65" transform="translate(28.208 43.716)"/><rect class="b" width="3.299" height="6.598" rx="1.65" transform="translate(37.611 33.819)"/><rect class="b" width="3.299" height="6.598" rx="1.65" transform="translate(37.611 43.716)"/></g><g transform="translate(799.527 8480)"><rect class="a" width="52" height="13" rx="6.5" transform="translate(0 48.025)"/><path class="a" d="M18,0h0A18,18,0,0,1,36,18V35a0,0,0,0,1,0,0H0a0,0,0,0,1,0,0V18A18,18,0,0,1,18,0Z" transform="translate(8 15.025)"/><rect class="a" width="4.505" height="10.552" rx="2.252" transform="translate(24.464)"/><rect class="a" width="4.505" height="10.552" rx="2.252" transform="translate(2.976 8.161) rotate(-45)"/><rect class="a" width="4.505" height="10.552" rx="2.252" transform="translate(42.997 15.622) rotate(-135)"/><ellipse class="b" cx="4.186" cy="3.349" rx="4.186" ry="3.349" transform="matrix(0.719, -0.695, 0.695, 0.719, 13.744, 25.126)"/></g><g transform="translate(471.63 8579)"><ellipse class="a" cx="26" cy="25.5" rx="26" ry="25.5" transform="translate(0.37 16)"/><rect class="a" width="6" height="15" transform="translate(23.37 2)"/><rect class="a" width="10.023" height="6.682" rx="3.341" transform="translate(39.807 13.909) rotate(30)"/><rect class="a" width="25" height="8" rx="4" transform="translate(14.37 0)"/><ellipse class="f" cx="21.5" cy="19.5" rx="21.5" ry="19.5" transform="translate(4.37 23)"/><rect class="b" width="18.375" height="5.011" rx="2.506" transform="translate(28.277 25.963) rotate(90)"/><rect class="b" width="15.034" height="5.011" rx="2.506" transform="translate(26.058 38.575) rotate(45)"/></g><g transform="translate(802.381 8378)"><g transform="translate(11.419 0)"><ellipse class="a" cx="14.511" cy="14.511" rx="14.511" ry="14.511" transform="translate(0 0)"/><ellipse class="a" cx="12.899" cy="12.899" rx="12.899" ry="12.899" transform="translate(1.612 1.612)"/></g><path class="a" d="M25.676,0h.856a5.991,5.991,0,0,1,5.991,5.991v39.37a5.991,5.991,0,0,1-5.991,5.991h-.856A25.676,25.676,0,0,1,0,25.676v0A25.676,25.676,0,0,1,25.676,0Z" transform="translate(51.352 30.812) rotate(90)"/></g><g transform="translate(322 8480)"><rect class="a" width="26" height="43" rx="13" transform="translate(6.286)"/><rect class="a" width="5" height="10" transform="translate(16.286 48)"/><rect class="a" width="23" height="7" rx="3.5" transform="translate(7.286 54)"/><path class="g" d="M708.151,1622.948s1.453,18.383,19.909,17.947,19.037-17.947,19.037-17.947" transform="translate(-708.151 -1593.471)"/></g><g transform="translate(632.27 8585)"><rect class="a" width="54" height="55" rx="7" transform="translate(-0.269 0)"/><line class="h" x2="29.441" transform="translate(11.804 16.436)"/><line class="h" x2="29.441" transform="translate(11.804 24.437)"/><line class="h" x2="29.441" transform="translate(11.804 32.437)"/></g><path class="i" d="M0,43.931l25.415.03L24.86,0" transform="translate(667.378 8682.295) rotate(45)"/><g transform="translate(799.334 8687.585)"><line class="j" y2="51.533" transform="translate(25.767)"/><line class="j" y2="51.533" transform="translate(51.533 25.767) rotate(90)"/></g><path class="i" d="M0,20.644,24.517,0,49.033,20.644" transform="translate(326.5 8737.241) rotate(-90)"/><path class="i" d="M0,0,24.517,20.644,49.033,0" transform="translate(491.389 8737.241) rotate(-90)"/><g transform="translate(973.733 8688)"><g class="k" transform="translate(0.266 0)"><circle class="m" cx="23.5" cy="23.5" r="23.5"/><circle class="n" cx="23.5" cy="23.5" r="21"/></g><line class="j" x2="11.595" y2="10.055" transform="translate(39.697 39.188)"/></g><g transform="translate(675.31 8471.644) rotate(30)"><rect class="a" width="20.452" height="53.919" rx="7" transform="translate(0 9.296)"/><rect class="a" width="5.578" height="11.156" transform="translate(7.437 1.859)"/><rect class="a" width="5.578" height="9.296" transform="translate(7.437 59.497)"/><rect class="a" width="1.859" height="11.156" transform="translate(9.296 66.934)"/><rect class="a" width="16.733" height="3.719" rx="1.859" transform="translate(1.859 0)"/><rect class="b" width="7.437" height="3.719" rx="1.859" transform="translate(10.226 36.72) rotate(180)"/><rect class="b" width="7.437" height="3.719" rx="1.859" transform="translate(10.226 51.595) rotate(180)"/><rect class="b" width="11.156" height="3.719" rx="1.859" transform="translate(13.944 44.158) rotate(180)"/></g><path class="a" d="M22.229,62.172l0,0A128.546,128.546,0,0,1,11.177,49.124C6.124,42.264.085,32.358,0,24.129-.072,16.675,2.016,10.505,6.045,6.285,9.97,2.173,15.566,0,22.229,0,29.1,0,35.091,2.341,39.109,6.595c3.994,4.23,6.029,10.293,5.884,17.534-.162,8.316-6.343,18.218-11.5,25.06a129.558,129.558,0,0,1-11.262,12.98Zm.519-49.023a9.706,9.706,0,0,0-9.511,9.867,9.7,9.7,0,0,0,9.511,9.86,9.7,9.7,0,0,0,9.508-9.86A9.7,9.7,0,0,0,22.747,13.149Z" transform="translate(802.891 8581)"/><g transform="translate(971.734 8585)"><ellipse class="a" cx="27.5" cy="28" rx="27.5" ry="28" transform="translate(0.266 0)"/><g transform="translate(26.702 16.413) rotate(45)"><line class="l" y2="16.617" transform="translate(8.309)"/><line class="l" y2="16.617" transform="translate(16.617 8.309) rotate(90)"/></g></g></g></svg>