<svg xmlns="http://www.w3.org/2000/svg" xmlns:xlink="http://www.w3.org/1999/xlink" width="189.411" height="189.411" viewBox="0 0 189.411 189.411"><defs><style>.a,.b,.c,.d{opacity:0.8;}.a{mix-blend-mode:screen;fill:url(#a);}.a,.e{isolation:isolate;}.b{fill:url(#b);}.c{fill:#ff648d;}.d{fill:url(#c);}.e{clip-path:url(#d);}.f{fill:#8d6eff;}.g{fill:#fc527e;}</style><linearGradient id="a" x1="0.5" x2="0.5" y2="1" gradientUnits="objectBoundingBox"><stop offset="0" stop-color="#8d6eff"/><stop offset="1" stop-color="#ff648d"/></linearGradient><linearGradient id="b" x1="0.439" y1="0.302" x2="0.459" y2="0.702" xlink:href="#a"/><linearGradient id="c" x1="0.5" x2="0.5" y2="1" gradientUnits="objectBoundingBox"><stop offset="0" stop-color="#8d6eff"/><stop offset="1" stop-color="#8462ff"/></linearGradient><clipPath id="d"><rect class="a" width="61.719" height="206.149" rx="30.859" transform="translate(189.411 145.77) rotate(135)"/></clipPath></defs><g transform="translate(-8.835 -6.975)"><g transform="translate(8.835 6.975)"><rect class="b" width="61.719" height="206.149" rx="30.859" transform="translate(189.411 145.77) rotate(135)"/><path class="c" d="M30.859,0A30.859,30.859,0,0,1,61.719,30.859V133.723a30.859,30.859,0,1,1-61.719,0V30.859A30.859,30.859,0,0,1,30.859,0Z" transform="translate(12.258 12.258)"/><rect class="d" width="61.719" height="164.583" rx="30.859" transform="translate(115.421 12.258)"/><g class="e" transform="translate(0 0)"><rect class="f" width="61.719" height="164.583" rx="30.859" transform="translate(115.122 12.258)"/><rect class="g" width="61.719" height="164.583" rx="30.859" transform="translate(12.258 12.258)"/></g></g></g></svg>