<svg xmlns="http://www.w3.org/2000/svg" xmlns:xlink="http://www.w3.org/1999/xlink" width="212" height="213" viewBox="0 0 212 213"><defs><style>.a{fill:#fff;}.b{fill:#818181;}.c{fill:#c9c9c9;}.d{filter:url(#a);}</style><filter id="a" x="0" y="0" width="212" height="213" filterUnits="userSpaceOnUse"><feOffset dy="5" input="SourceAlpha"/><feGaussianBlur stdDeviation="10.5" result="b"/><feFlood flood-opacity="0.11"/><feComposite operator="in" in2="b"/><feComposite in="SourceGraphic"/></filter></defs><g transform="translate(-1345.5 -7521.5)"><g class="d" transform="matrix(1, 0, 0, 1, 1345.5, 7521.5)"><rect class="a" width="149" height="150" rx="26" transform="translate(31.5 26.5)"/></g><ellipse class="b" cx="13.5" cy="13" rx="13.5" ry="13" transform="translate(1458 7600)"/><path class="b" d="M16.484,0H34A16.484,16.484,0,0,1,50.483,16.484V32.968H0V16.484A16.484,16.484,0,0,1,16.484,0Z" transform="translate(1446.385 7630.705)"/><ellipse class="c" cx="16.5" cy="17" rx="16.5" ry="17" transform="translate(1421 7583)"/><path class="c" d="M20.787,0H42.872A20.841,20.841,0,0,1,63.659,20.894V41.789H0V20.894A20.841,20.841,0,0,1,20.787,0Z" transform="translate(1405.703 7621.884)"/></g></svg>