<svg xmlns="http://www.w3.org/2000/svg" xmlns:xlink="http://www.w3.org/1999/xlink" width="214" height="212" viewBox="0 0 214 212"><defs><style>.a,.c,.d,.e{opacity:0.8;}.a{mix-blend-mode:screen;fill:url(#a);}.a,.f{isolation:isolate;}.b{fill:#fff;}.c{fill:url(#d);}.d{fill:#ff648d;}.e{fill:url(#e);}.f{clip-path:url(#f);}.g{fill:#8d6eff;}.h{fill:#fc527e;}.i{filter:url(#b);}</style><linearGradient id="a" x1="0.5" x2="0.5" y2="1" gradientUnits="objectBoundingBox"><stop offset="0" stop-color="#8d6eff"/><stop offset="1" stop-color="#ff648d"/></linearGradient><filter id="b" x="0" y="0" width="214" height="212" filterUnits="userSpaceOnUse"><feOffset dy="5" input="SourceAlpha"/><feGaussianBlur stdDeviation="10.5" result="c"/><feFlood flood-opacity="0.09"/><feComposite operator="in" in2="c"/><feComposite in="SourceGraphic"/></filter><linearGradient id="d" x1="0.439" y1="0.302" x2="0.459" y2="0.702" xlink:href="#a"/><linearGradient id="e" x1="0.5" x2="0.5" y2="1" gradientUnits="objectBoundingBox"><stop offset="0" stop-color="#8d6eff"/><stop offset="1" stop-color="#8462ff"/></linearGradient><clipPath id="f"><rect class="a" width="30.003" height="100.213" rx="15.001" transform="translate(92.076 70.861) rotate(135)"/></clipPath></defs><g transform="translate(-853.5 -6349.5)"><g class="i" transform="matrix(1, 0, 0, 1, 853.5, 6349.5)"><rect class="b" width="151" height="149" rx="26" transform="translate(31.5 26.5)"/></g><g transform="translate(914.43 6403.32)"><rect class="c" width="30.003" height="100.213" rx="15.001" transform="translate(92.076 70.861) rotate(135)"/><path class="d" d="M15,0A15,15,0,0,1,30,15v50a15,15,0,1,1-30,0V15A15,15,0,0,1,15,0Z" transform="translate(5.959 5.959)"/><rect class="e" width="30.003" height="80.007" rx="15.001" transform="translate(56.108 5.959)"/><g class="f" transform="translate(0 0)"><rect class="g" width="30.003" height="80.007" rx="15.001" transform="translate(55.963 5.959)"/><rect class="h" width="30.003" height="80.007" rx="15.001" transform="translate(5.959 5.959)"/></g></g></g></svg>