<svg xmlns="http://www.w3.org/2000/svg" xmlns:xlink="http://www.w3.org/1999/xlink" width="212" height="212" viewBox="0 0 212 212"><defs><style>.a,.e{opacity:0.8;}.a{mix-blend-mode:screen;}.a,.f{isolation:isolate;}.a,.e,.g{fill:url(#a);}.b{fill:#fff;}.c{fill:#c9c9c9;}.d{fill:#818181;}.f{clip-path:url(#g);}.h{filter:url(#b);}</style><linearGradient id="a" x1="0.439" y1="0.302" x2="0.459" y2="0.702" gradientUnits="objectBoundingBox"><stop offset="0" stop-color="#fff"/><stop offset="1" stop-color="#fff"/></linearGradient><filter id="b" x="0" y="0" width="212" height="212" filterUnits="userSpaceOnUse"><feOffset dy="5" input="SourceAlpha"/><feGaussianBlur stdDeviation="10.5" result="c"/><feFlood flood-opacity="0.11"/><feComposite operator="in" in2="c"/><feComposite in="SourceGraphic"/></filter><clipPath id="g"><rect class="a" width="9.961" height="33.271" rx="4.98" transform="translate(30.57 23.526) rotate(135)"/></clipPath></defs><g transform="translate(-1345.5 -7957.5)"><g class="h" transform="matrix(1, 0, 0, 1, 1345.5, 7957.5)"><rect class="b" width="149" height="149" rx="26" transform="translate(31.5 26.5)"/></g><rect class="c" width="65" height="105" rx="12" transform="translate(1419 8006)"/><rect class="d" width="50" height="90" rx="8" transform="translate(1427 8013)"/><g transform="translate(1437.559 8042.494)"><rect class="e" width="9.961" height="33.271" rx="4.98" transform="translate(30.569 23.526) rotate(135)"/><path class="e" d="M4.98,0a4.98,4.98,0,0,1,4.98,4.98v16.6a4.98,4.98,0,1,1-9.961,0V4.98A4.98,4.98,0,0,1,4.98,0Z" transform="translate(1.978 1.978)"/><rect class="e" width="9.961" height="26.562" rx="4.98" transform="translate(18.628 1.978)"/><g class="f" transform="translate(0)"><rect class="g" width="9.961" height="26.562" rx="4.98" transform="translate(18.58 1.978)"/><rect class="g" width="9.961" height="26.562" rx="4.98" transform="translate(1.978 1.978)"/></g></g><rect class="c" width="29" height="10" rx="5" transform="translate(1438 8008)"/></g></svg>