<svg xmlns="http://www.w3.org/2000/svg" xmlns:xlink="http://www.w3.org/1999/xlink" width="81" height="82" viewBox="0 0 81 82"><defs><style>.a{fill:#8d6eff;}.b{fill:none;stroke:#fff;stroke-linecap:round;stroke-miterlimit:10;stroke-width:3px;}.c{filter:url(#a);}</style><filter id="a" x="0" y="0" width="81" height="82" filterUnits="userSpaceOnUse"><feOffset dy="3" input="SourceAlpha"/><feGaussianBlur stdDeviation="3" result="b"/><feFlood flood-opacity="0.161"/><feComposite operator="in" in2="b"/><feComposite in="SourceGraphic"/></filter></defs><g transform="translate(-920 -6183)"><g class="c" transform="matrix(1, 0, 0, 1, 920, 6183)"><ellipse class="a" cx="31.5" cy="32" rx="31.5" ry="32" transform="translate(9 6)"/></g><g transform="translate(946.892 6202.337) rotate(13)"><path class="b" d="M29.564,0A15.391,15.391,0,0,1,14.476,12.367,15.392,15.392,0,0,1,0,2.213" transform="translate(2.632 18.405)"/><path class="b" d="M0,12.011A15.392,15.392,0,0,1,29.242,9.518" transform="translate(2.091 0)"/><line class="b" x1="1.413" y1="7.423" transform="translate(0 5.282)"/><line class="b" y1="3.428" x2="6.734" transform="translate(1.497 9.251)"/><g transform="translate(26.326 17.21)"><line class="b" x2="2.263" y2="7.209" transform="translate(6.371 0)"/><line class="b" x1="6.292" y2="4.184" transform="translate(0 0.035)"/></g></g></g></svg>