<svg xmlns="http://www.w3.org/2000/svg" xmlns:xlink="http://www.w3.org/1999/xlink" width="385" height="278" viewBox="0 0 385 278"><defs><style>.a{fill:#fff;}.b{fill:#8d6eff;}.b,.c,.m,.n{font-size:11px;}.b,.m{font-family:SDGothicNeoa-fSm, 'Sandoll GothicNeo1 06 Sb';}.c,.f,.n{fill:#8669f4;font-family:SDGothicNeoa-gBd, 'Sandoll GothicNeo1 07 Bd';}.d{fill:#e5e5e5;}.e{fill:url(#c);}.f{font-size:12px;}.g{fill:#b9b9b9;}.h,.i,.j,.k,.l{isolation:isolate;}.h{fill:url(#s);}.i{fill:url(#t);}.j{fill:url(#u);}.k{fill:url(#v);}.l{fill:url(#w);}.m{fill:#888;}.n{opacity:0.5;}.o{filter:url(#x);}.p{filter:url(#q);}.q{filter:url(#o);}.r{filter:url(#m);}.s{filter:url(#k);}.t{filter:url(#i);}.u{filter:url(#g);}.v{filter:url(#a);}</style><filter id="a" x="0" y="0" width="385" height="278" filterUnits="userSpaceOnUse"><feOffset dy="11" input="SourceAlpha"/><feGaussianBlur stdDeviation="10.5" result="b"/><feFlood flood-opacity="0.141"/><feComposite operator="in" in2="b"/><feComposite in="SourceGraphic"/></filter><linearGradient id="c" y1="0.5" x2="1" y2="0.5" gradientUnits="objectBoundingBox"><stop offset="0" stop-color="#ff83a6"/><stop offset="1" stop-color="#a88eff"/></linearGradient><filter id="g" x="274.751" y="104.146" width="27.319" height="41.992" filterUnits="userSpaceOnUse"><feOffset dy="3" input="SourceAlpha"/><feGaussianBlur stdDeviation="3" result="h"/><feFlood flood-opacity="0.071"/><feComposite operator="in" in2="h"/><feComposite in="SourceGraphic"/></filter><filter id="i" x="250.794" y="118.834" width="27.319" height="41.992" filterUnits="userSpaceOnUse"><feOffset dy="3" input="SourceAlpha"/><feGaussianBlur stdDeviation="3" result="j"/><feFlood flood-opacity="0.071"/><feComposite operator="in" in2="j"/><feComposite in="SourceGraphic"/></filter><filter id="k" x="286.868" y="103.815" width="51.261" height="27.319" filterUnits="userSpaceOnUse"><feOffset dy="3" input="SourceAlpha"/><feGaussianBlur stdDeviation="3" result="l"/><feFlood flood-opacity="0.071"/><feComposite operator="in" in2="l"/><feComposite in="SourceGraphic"/></filter><filter id="m" x="250.791" y="103.815" width="51.261" height="27.319" filterUnits="userSpaceOnUse"><feOffset dy="3" input="SourceAlpha"/><feGaussianBlur stdDeviation="3" result="n"/><feFlood flood-opacity="0.071"/><feComposite operator="in" in2="n"/><feComposite in="SourceGraphic"/></filter><filter id="o" x="250.791" y="133.477" width="51.261" height="27.319" filterUnits="userSpaceOnUse"><feOffset dy="3" input="SourceAlpha"/><feGaussianBlur stdDeviation="3" result="p"/><feFlood flood-opacity="0.071"/><feComposite operator="in" in2="p"/><feComposite in="SourceGraphic"/></filter><filter id="q" x="250.791" y="118.789" width="51.261" height="27.319" filterUnits="userSpaceOnUse"><feOffset dy="3" input="SourceAlpha"/><feGaussianBlur stdDeviation="3" result="r"/><feFlood flood-opacity="0.071"/><feComposite operator="in" in2="r"/><feComposite in="SourceGraphic"/></filter><linearGradient id="s" x1="0.713" y1="0.978" x2="-0.008" y2="0.002" gradientUnits="objectBoundingBox"><stop offset="0" stop-color="#8d6eff"/><stop offset="1" stop-color="#c4c4c4" stop-opacity="0"/></linearGradient><linearGradient id="t" x1="0.7" y1="0.996" x2="0.009" y2="-0.002" gradientUnits="objectBoundingBox"><stop offset="0" stop-color="#8d6eff"/><stop offset="1" stop-color="#fff" stop-opacity="0"/></linearGradient><linearGradient id="u" x1="0.715" y1="1.003" x2="-0.001" gradientUnits="objectBoundingBox"><stop offset="0" stop-color="#fc527e"/><stop offset="1" stop-color="#fff" stop-opacity="0"/></linearGradient><linearGradient id="v" x1="0.715" y1="1.003" x2="-0.001" gradientUnits="objectBoundingBox"><stop offset="0" stop-color="#fc527e"/><stop offset="1" stop-color="#fff"/></linearGradient><linearGradient id="w" x1="0.713" y1="0.978" x2="-0.008" y2="0.002" xlink:href="#t"/><filter id="x" x="310.829" y="103.861" width="27.319" height="57.107" filterUnits="userSpaceOnUse"><feOffset dy="3" input="SourceAlpha"/><feGaussianBlur stdDeviation="3" result="y"/><feFlood flood-opacity="0.071"/><feComposite operator="in" in2="y"/><feComposite in="SourceGraphic"/></filter></defs><g transform="translate(-394.5 -14589.5)"><g class="v" transform="matrix(1, 0, 0, 1, 394.5, 14589.5)"><rect class="a" width="322" height="215" rx="23" transform="translate(31.5 20.5)"/></g><text class="b" transform="translate(457 14647)"><tspan x="0" y="0">DAY</tspan></text><text class="c" transform="translate(464 14797)"><tspan x="0" y="0">7</tspan></text><rect class="d" width="108.23" height="12.445" rx="6.222" transform="translate(461.419 14771.496) rotate(-90)"/><rect class="e" width="79.218" height="12.445" rx="6.222" transform="translate(473.863 14692.278) rotate(90)"/><text class="b" transform="translate(494 14647)"><tspan x="0" y="0">EVENING</tspan></text><text class="c" transform="translate(515 14797)"><tspan x="0" y="0">5</tspan></text><rect class="d" width="108.23" height="12.445" rx="6.222" transform="translate(512.154 14771.496) rotate(-90)"/><rect class="e" width="63.902" height="12.445" rx="6.222" transform="translate(524.599 14707.595) rotate(90)"/><text class="b" transform="translate(554 14647)"><tspan x="0" y="0">NIGHT</tspan></text><text class="f" transform="translate(568 14798)"><tspan x="0" y="0">9</tspan></text><rect class="d" width="108.23" height="12.445" rx="6.222" transform="translate(564.804 14771.496) rotate(-90)"/><rect class="e" width="95.492" height="12.445" rx="6.222" transform="translate(577.249 14676.004) rotate(90)"/><text class="b" transform="translate(607 14647)"><tspan x="0" y="0">OFF</tspan></text><text class="c" transform="translate(615 14797)"><tspan x="0" y="0">2</tspan></text><rect class="d" width="108.23" height="12.445" rx="6.222" transform="translate(611.71 14771.496) rotate(-90)"/><rect class="e" width="40.927" height="12.445" rx="6.222" transform="translate(624.155 14730.569) rotate(90)"/><g transform="translate(652.872 14698.011)"><g class="u" transform="matrix(1, 0, 0, 1, -258.37, -108.51)"><rect class="g" width="9.319" height="23.992" rx="4.66" transform="translate(293.07 134.14) rotate(180)"/></g><g class="t" transform="matrix(1, 0, 0, 1, -258.37, -108.51)"><rect class="g" width="9.319" height="23.992" rx="4.66" transform="translate(269.11 148.83) rotate(180)"/></g><g class="s" transform="matrix(1, 0, 0, 1, -258.37, -108.51)"><rect class="g" width="9.319" height="33.261" rx="4.66" transform="translate(329.13 109.82) rotate(90)"/></g><g class="r" transform="matrix(1, 0, 0, 1, -258.37, -108.51)"><rect class="g" width="9.319" height="33.261" rx="4.66" transform="translate(293.05 109.82) rotate(90)"/></g><g class="q" transform="matrix(1, 0, 0, 1, -258.37, -108.51)"><rect class="g" width="9.319" height="33.261" rx="4.66" transform="translate(293.05 139.48) rotate(90)"/></g><g class="p" transform="matrix(1, 0, 0, 1, -258.37, -108.51)"><rect class="g" width="9.319" height="33.261" rx="4.66" transform="translate(293.05 124.79) rotate(90)"/></g><path class="h" d="M7.953,7.924a4.644,4.644,0,0,1-1.64,7.469A4.577,4.577,0,0,1,.028,11.112C-.035,8.326.028,0,.028,0S6,5.7,7.953,7.924Z" transform="matrix(-0.391, 0.921, -0.921, -0.391, 18.057, 6.135)"/><path class="i" d="M7.953,7.924a4.644,4.644,0,0,1-1.64,7.469A4.577,4.577,0,0,1,.028,11.112C-.035,8.326.028,0,.028,0S6,5.7,7.953,7.924Z" transform="matrix(-0.391, 0.921, -0.921, -0.391, 18.057, 35.796)"/><path class="j" d="M7.953,7.924a4.644,4.644,0,0,1-1.64,7.469A4.577,4.577,0,0,1,.028,11.112C-.035,8.326.028,0,.028,0S6,5.7,7.953,7.924Z" transform="translate(18.057 21.021) rotate(-68)"/><path class="k" d="M7.953,7.924a4.644,4.644,0,0,1-1.64,7.469A4.577,4.577,0,0,1,.028,11.112C-.035,8.326.028,0,.028,0S6,5.7,7.953,7.924Z" transform="translate(61.565 36.768) rotate(-135)"/><path class="l" d="M7.953,7.924a4.644,4.644,0,0,1-1.64,7.469A4.577,4.577,0,0,1,.028,11.112C-.035,8.326.028,0,.028,0S6,5.7,7.953,7.924Z" transform="matrix(-0.391, 0.921, -0.921, -0.391, 54.135, 6.135)"/><g class="o" transform="matrix(1, 0, 0, 1, -258.37, -108.51)"><rect class="g" width="9.319" height="39.108" rx="4.66" transform="translate(329.15 148.97) rotate(180)"/></g><path class="j" d="M7.851,7.984a4.723,4.723,0,0,1-1.619,7.525A4.526,4.526,0,0,1,.028,11.2C-.035,8.389.028,0,.028,0S5.92,5.742,7.851,7.984Z" transform="translate(61.482 36.99) rotate(-135)"/></g><text class="m" transform="translate(674 14757)"><tspan x="0" y="0">TOTAL</tspan></text><text class="n" transform="translate(615 14797)"><tspan x="0" y="0">2</tspan></text></g></svg>