<?xml version="1.0" encoding="utf-8"?>
<!-- Generator: Adobe Illustrator 25.0.0, SVG Export Plug-In . SVG Version: 6.00 Build 0)  -->
<svg version="1.1" id="Layer_1" xmlns="http://www.w3.org/2000/svg" xmlns:xlink="http://www.w3.org/1999/xlink" x="0px" y="0px"
	 viewBox="0 0 1920 1114.2" style="enable-background:new 0 0 1920 1114.2;" xml:space="preserve">
<style type="text/css">
	.st0{fill:#A58DFF;}
	.st1{opacity:0.15;}
	.st2{fill:#8D6EFF;}
	.st3{fill:#FAFAFC;}
	.st4{fill:#FFFFFF;}
</style>
<g transform="translate(0 -16485.738)">
	<rect y="16485.7" class="st0" width="1920" height="1080"/>
	<g transform="translate(1438.764 17144.66)" class="st1">
		<path class="st2" d="M30,60.2h305.2c16.6,0,30,13.4,30,30v22c0,16.6-13.4,30-30,30H30c-16.6,0-30-13.4-30-30v-22
			C0,73.6,13.4,60.2,30,60.2z"/>
		<path class="st3" d="M95.3,6.1L95.3,6.1c13.6,0,24.6,11,24.6,24.6v61.5c0,13.6-11,24.6-24.6,24.6l0,0c-13.6,0-24.6-11-24.6-24.6
			V30.7C70.7,17.2,81.7,6.1,95.3,6.1z"/>
		<path class="st3" d="M279.7,6.1L279.7,6.1c13.6,0,24.6,11,24.6,24.6v61.5c0,13.6-11,24.6-24.6,24.6l0,0c-13.6,0-24.6-11-24.6-24.6
			V30.7C255.1,17.2,266.1,6.1,279.7,6.1z"/>
		<path class="st2" d="M40,157.1h285.2c22.1,0,40,17.9,40,40v218.2c0,22.1-17.9,40-40,40H40c-22.1,0-40-17.9-40-40V197.1
			C0,175,17.9,157.1,40,157.1z"/>
		<path class="st2" d="M95.3,0L95.3,0c13.6,0,24.6,11,24.6,24.6v36.9c0,13.6-11,24.6-24.6,24.6l0,0c-13.6,0-24.6-11-24.6-24.6V24.6
			C70.7,11,81.7,0,95.3,0z"/>
		<path class="st2" d="M279.7,0L279.7,0c13.6,0,24.6,11,24.6,24.6v36.9c0,13.6-11,24.6-24.6,24.6l0,0c-13.6,0-24.6-11-24.6-24.6
			V24.6C255.1,11,266.1,0,279.7,0z"/>
		<path class="st4" d="M77.6,252.1L77.6,252.1c7,0,12.6,5.6,12.6,12.6v24c0,7-5.6,12.6-12.6,12.6l0,0c-7,0-12.6-5.6-12.6-12.6v-24
			C65,257.7,70.7,252.1,77.6,252.1z"/>
		<path class="st4" d="M77.6,325.9L77.6,325.9c7,0,12.6,5.6,12.6,12.6v24c0,7-5.6,12.6-12.6,12.6l0,0c-7,0-12.6-5.6-12.6-12.6v-24
			C65,331.5,70.7,325.9,77.6,325.9z"/>
		<path class="st4" d="M147.7,252.1L147.7,252.1c7,0,12.6,5.6,12.6,12.6v24c0,7-5.6,12.6-12.6,12.6l0,0c-7,0-12.6-5.6-12.6-12.6v-24
			C135.1,257.7,140.7,252.1,147.7,252.1z"/>
		<path class="st4" d="M147.7,325.9L147.7,325.9c7,0,12.6,5.6,12.6,12.6v24c0,7-5.6,12.6-12.6,12.6l0,0c-7,0-12.6-5.6-12.6-12.6v-24
			C135.1,331.5,140.7,325.9,147.7,325.9z"/>
		<path class="st4" d="M216.6,252.1L216.6,252.1c7,0,12.6,5.6,12.6,12.6v24c0,7-5.6,12.6-12.6,12.6l0,0c-7,0-12.6-5.6-12.6-12.6v-24
			C204,257.7,209.6,252.1,216.6,252.1z"/>
		<path class="st4" d="M216.6,325.9L216.6,325.9c7,0,12.6,5.6,12.6,12.6v24c0,7-5.6,12.6-12.6,12.6l0,0c-7,0-12.6-5.6-12.6-12.6v-24
			C204,331.5,209.6,325.9,216.6,325.9z"/>
		<path class="st4" d="M286.6,252.1L286.6,252.1c7,0,12.6,5.6,12.6,12.6v24c0,7-5.6,12.6-12.6,12.6l0,0c-7,0-12.6-5.6-12.6-12.6v-24
			C274,257.7,279.7,252.1,286.6,252.1z"/>
		<path class="st4" d="M286.6,325.9L286.6,325.9c7,0,12.6,5.6,12.6,12.6v24c0,7-5.6,12.6-12.6,12.6l0,0c-7,0-12.6-5.6-12.6-12.6v-24
			C274,331.5,279.7,325.9,286.6,325.9z"/>
	</g>
</g>
</svg>
