<svg xmlns="http://www.w3.org/2000/svg" width="538.2" height="457.056" viewBox="0 0 538.2 457.056"><defs><style>.a{fill:#8d6eff;font-size:22px;font-family:SDGothicNeoa-cLt, 'Sandoll GothicNeo1 03 Lt';}.b{fill:none;stroke:#b6add6;stroke-linecap:round;stroke-width:2px;}</style></defs><g transform="translate(-967.992 -12239)"><path d="M24.084,0H27.9V-25.7H24.084v10.3H6.588V-25.7H2.772V0H6.588V-12.1h17.5ZM53.208-8.352V-8.82a12.609,12.609,0,0,0-.864-4.878,8.94,8.94,0,0,0-2.322-3.348,9.311,9.311,0,0,0-3.276-1.872,12.036,12.036,0,0,0-3.762-.594,13.183,13.183,0,0,0-4.734.792,9.72,9.72,0,0,0-3.456,2.178,8.931,8.931,0,0,0-2.07,3.2,11,11,0,0,0-.684,3.906,11,11,0,0,0,.684,3.906,8.931,8.931,0,0,0,2.07,3.2A9.72,9.72,0,0,0,38.25-.144a13.183,13.183,0,0,0,4.734.792,11.835,11.835,0,0,0,2.88-.36A10.349,10.349,0,0,0,48.618-.846a9.4,9.4,0,0,0,2.376-2.016A10.184,10.184,0,0,0,52.7-5.724H48.888a5.163,5.163,0,0,1-1.134,1.6,5.565,5.565,0,0,1-1.6,1.062,7.874,7.874,0,0,1-3.348.684,7.582,7.582,0,0,1-2.412-.4,7.216,7.216,0,0,1-2.178-1.17,6.31,6.31,0,0,1-1.62-1.89,5.994,5.994,0,0,1-.738-2.52ZM35.964-11.16a5.808,5.808,0,0,1,2.34-3.888,7.357,7.357,0,0,1,4.5-1.44,6.924,6.924,0,0,1,4.392,1.4,5.927,5.927,0,0,1,2.2,3.924ZM56.88,0h3.6V-25.92h-3.6ZM73.116-3.96l-6.48-14.9H62.5L71.064,0h3.96l8.5-18.864H79.488Zm32.76-4.392V-8.82a12.609,12.609,0,0,0-.864-4.878,8.94,8.94,0,0,0-2.322-3.348,9.311,9.311,0,0,0-3.276-1.872,12.036,12.036,0,0,0-3.762-.594,13.183,13.183,0,0,0-4.734.792,9.72,9.72,0,0,0-3.456,2.178,8.931,8.931,0,0,0-2.07,3.2,11,11,0,0,0-.684,3.906,11,11,0,0,0,.684,3.906,8.931,8.931,0,0,0,2.07,3.2A9.72,9.72,0,0,0,90.918-.144a13.183,13.183,0,0,0,4.734.792,11.835,11.835,0,0,0,2.88-.36,10.349,10.349,0,0,0,2.754-1.134,9.4,9.4,0,0,0,2.376-2.016,10.184,10.184,0,0,0,1.71-2.862h-3.816a5.164,5.164,0,0,1-1.134,1.6,5.565,5.565,0,0,1-1.6,1.062,7.874,7.874,0,0,1-3.348.684,7.582,7.582,0,0,1-2.412-.4,7.216,7.216,0,0,1-2.178-1.17,6.31,6.31,0,0,1-1.62-1.89,5.994,5.994,0,0,1-.738-2.52ZM88.632-11.16a5.808,5.808,0,0,1,2.34-3.888,7.357,7.357,0,0,1,4.5-1.44,6.924,6.924,0,0,1,4.392,1.4,5.927,5.927,0,0,1,2.2,3.924Zm22.5-7.7h-3.888v2.808h3.888v12.24a4.377,4.377,0,0,0,1.206,3.294A5.234,5.234,0,0,0,116.1.648,24.78,24.78,0,0,0,120.132.4V-2.628a14.712,14.712,0,0,1-2.484.252,3.984,3.984,0,0,1-2.178-.486,1.737,1.737,0,0,1-.738-1.566V-16.056h5.4v-2.808h-5.4v-5.8h-3.6ZM122.868,0h3.6V-18.864h-3.6Zm0-21.96h3.6v-3.96h-3.6ZM146.3-6.912a6.013,6.013,0,0,1-1.98,3.438,6.038,6.038,0,0,1-3.816,1.1A6.25,6.25,0,0,1,135.522-4.3a7.544,7.544,0,0,1-1.674-5.13,7.544,7.544,0,0,1,1.674-5.13,6.25,6.25,0,0,1,4.986-1.926,6.735,6.735,0,0,1,3.942,1.026,4.282,4.282,0,0,1,1.782,2.9h3.816a7.3,7.3,0,0,0-3.2-5.166,11.588,11.588,0,0,0-6.588-1.782,11.754,11.754,0,0,0-4.41.774,8.878,8.878,0,0,0-3.258,2.214,10.2,10.2,0,0,0-2.556,7.2,11.923,11.923,0,0,0,.576,3.69,9.2,9.2,0,0,0,1.8,3.2,8.43,8.43,0,0,0,3.2,2.25,12.081,12.081,0,0,0,4.68.828,10.6,10.6,0,0,0,6.3-1.746,9.956,9.956,0,0,0,3.528-5.814Zm10.584-6.048a3.149,3.149,0,0,1,1.656-2.9,8.868,8.868,0,0,1,4.176-.846,16.472,16.472,0,0,1,2.142.126,6.054,6.054,0,0,1,1.71.468,2.729,2.729,0,0,1,1.17.954,2.7,2.7,0,0,1,.414,1.548,1.732,1.732,0,0,1-.774,1.638,6.606,6.606,0,0,1-2.5.63l-4.1.432q-4.464.468-6.282,1.836a4.73,4.73,0,0,0-1.818,4.032,6.03,6.03,0,0,0,.342,2.016,4.708,4.708,0,0,0,1.188,1.8,6.218,6.218,0,0,0,2.376,1.35,11.754,11.754,0,0,0,3.762.522,13.694,13.694,0,0,0,4.7-.828,6.962,6.962,0,0,0,3.33-2.232,2.8,2.8,0,0,0,.972,2.07,3.908,3.908,0,0,0,2.268.558A17.107,17.107,0,0,0,174.42,0V-2.52a6.534,6.534,0,0,1-1.26.144A1.432,1.432,0,0,1,171.54-4V-14.148a4.392,4.392,0,0,0-.774-2.628,5.157,5.157,0,0,0-2.034-1.674,10.08,10.08,0,0,0-2.772-.828,20.216,20.216,0,0,0-3.1-.234,12.027,12.027,0,0,0-6.678,1.548,6.431,6.431,0,0,0-2.682,5Zm11.268,5.508a4,4,0,0,1-.594,2.124,5.7,5.7,0,0,1-1.62,1.692,7.7,7.7,0,0,1-2.394,1.1,10.767,10.767,0,0,1-2.88.378,5.547,5.547,0,0,1-3.168-.828,2.508,2.508,0,0,1-1.224-2.16A2.373,2.373,0,0,1,157.3-7.272a7.887,7.887,0,0,1,3.258-.972l4.068-.5a16.557,16.557,0,0,0,2.358-.45,2.551,2.551,0,0,0,1.17-.666ZM189.468,0h21.024V-3.312H193.284v-8.316h16.344V-14.94H193.284v-7.452h16.848V-25.7H189.468Zm33.264-12.384-5.364-6.48h-4.9l7.776,9.108L211.86,0h4.752l5.976-7.164L228.528,0h5.04l-8.5-9.756,7.92-9.108H228.2Zm14.436-6.48H233.28v2.808h3.888v12.24a4.377,4.377,0,0,0,1.206,3.294,5.234,5.234,0,0,0,3.762,1.17A24.78,24.78,0,0,0,246.168.4V-2.628a14.712,14.712,0,0,1-2.484.252,3.984,3.984,0,0,1-2.178-.486,1.737,1.737,0,0,1-.738-1.566V-16.056h5.4v-2.808h-5.4v-5.8h-3.6ZM269.244-8.352V-8.82a12.608,12.608,0,0,0-.864-4.878,8.94,8.94,0,0,0-2.322-3.348,9.311,9.311,0,0,0-3.276-1.872,12.036,12.036,0,0,0-3.762-.594,13.183,13.183,0,0,0-4.734.792,9.72,9.72,0,0,0-3.456,2.178,8.931,8.931,0,0,0-2.07,3.2,11,11,0,0,0-.684,3.906,11,11,0,0,0,.684,3.906,8.931,8.931,0,0,0,2.07,3.2,9.72,9.72,0,0,0,3.456,2.178,13.183,13.183,0,0,0,4.734.792,11.835,11.835,0,0,0,2.88-.36,10.349,10.349,0,0,0,2.754-1.134,9.4,9.4,0,0,0,2.376-2.016,10.184,10.184,0,0,0,1.71-2.862h-3.816a5.164,5.164,0,0,1-1.134,1.6,5.564,5.564,0,0,1-1.6,1.062,7.874,7.874,0,0,1-3.348.684,7.581,7.581,0,0,1-2.412-.4,7.216,7.216,0,0,1-2.178-1.17,6.309,6.309,0,0,1-1.62-1.89,5.994,5.994,0,0,1-.738-2.52ZM252-11.16a5.808,5.808,0,0,1,2.34-3.888,7.357,7.357,0,0,1,4.5-1.44,6.924,6.924,0,0,1,4.392,1.4,5.927,5.927,0,0,1,2.2,3.924ZM272.916,0h3.6V-10.872a5.055,5.055,0,0,1,1.8-4.14,6.7,6.7,0,0,1,4.392-1.476,6.593,6.593,0,0,1,4.212,1.116,3.939,3.939,0,0,1,1.368,3.24V0h3.6V-12.852a5.9,5.9,0,0,0-2.16-5.022,9.3,9.3,0,0,0-5.76-1.638,10.767,10.767,0,0,0-4.23.828,6.862,6.862,0,0,0-3.15,2.664h-.072v-2.844h-3.6Zm40.032,0h3.6V-25.92h-3.6v9.684h-.072A6.578,6.578,0,0,0,309.87-18.5a11,11,0,0,0-4.158-.792,11.834,11.834,0,0,0-4,.666,9.433,9.433,0,0,0-3.276,1.962,9.079,9.079,0,0,0-2.2,3.15,10.582,10.582,0,0,0-.792,4.194,10.617,10.617,0,0,0,.792,4.176,9.04,9.04,0,0,0,2.2,3.168,9.433,9.433,0,0,0,3.276,1.962,11.834,11.834,0,0,0,4,.666,10.966,10.966,0,0,0,4.158-.81,6.541,6.541,0,0,0,3.006-2.25h.072Zm-13.68-9.324A6.859,6.859,0,0,1,301.14-14.4a6.811,6.811,0,0,1,5.04-1.872,6.921,6.921,0,0,1,5.094,1.872,6.822,6.822,0,0,1,1.89,5.076A8.366,8.366,0,0,1,312.75-6.7a6.265,6.265,0,0,1-1.278,2.232,5.97,5.97,0,0,1-2.2,1.53,7.965,7.965,0,0,1-3.1.558,7.83,7.83,0,0,1-3.078-.558,5.735,5.735,0,0,1-2.16-1.548,6.667,6.667,0,0,1-1.26-2.214A8.15,8.15,0,0,1,299.268-9.324Zm42.012.972V-8.82a12.608,12.608,0,0,0-.864-4.878,8.94,8.94,0,0,0-2.322-3.348,9.311,9.311,0,0,0-3.276-1.872,12.036,12.036,0,0,0-3.762-.594,13.183,13.183,0,0,0-4.734.792,9.72,9.72,0,0,0-3.456,2.178,8.931,8.931,0,0,0-2.07,3.2,11,11,0,0,0-.684,3.906,11,11,0,0,0,.684,3.906,8.931,8.931,0,0,0,2.07,3.2,9.72,9.72,0,0,0,3.456,2.178,13.183,13.183,0,0,0,4.734.792,11.835,11.835,0,0,0,2.88-.36A10.349,10.349,0,0,0,336.69-.846a9.4,9.4,0,0,0,2.376-2.016,10.184,10.184,0,0,0,1.71-2.862H336.96a5.164,5.164,0,0,1-1.134,1.6,5.564,5.564,0,0,1-1.6,1.062,7.874,7.874,0,0,1-3.348.684,7.581,7.581,0,0,1-2.412-.4,7.216,7.216,0,0,1-2.178-1.17,6.31,6.31,0,0,1-1.62-1.89,5.993,5.993,0,0,1-.738-2.52ZM324.036-11.16a5.808,5.808,0,0,1,2.34-3.888,7.357,7.357,0,0,1,4.5-1.44,6.924,6.924,0,0,1,4.392,1.4,5.927,5.927,0,0,1,2.2,3.924ZM361.62,0h3.6V-25.92h-3.6v9.684h-.072a6.578,6.578,0,0,0-3.006-2.268,11,11,0,0,0-4.158-.792,11.834,11.834,0,0,0-4,.666,9.433,9.433,0,0,0-3.276,1.962,9.079,9.079,0,0,0-2.2,3.15,10.582,10.582,0,0,0-.792,4.194,10.617,10.617,0,0,0,.792,4.176,9.04,9.04,0,0,0,2.2,3.168,9.433,9.433,0,0,0,3.276,1.962,11.834,11.834,0,0,0,4,.666,10.966,10.966,0,0,0,4.158-.81,6.541,6.541,0,0,0,3.006-2.25h.072ZM347.94-9.324a6.859,6.859,0,0,1,1.872-5.076,6.811,6.811,0,0,1,5.04-1.872,6.921,6.921,0,0,1,5.094,1.872,6.822,6.822,0,0,1,1.89,5.076,8.366,8.366,0,0,1-.414,2.628,6.265,6.265,0,0,1-1.278,2.232,5.97,5.97,0,0,1-2.2,1.53,7.965,7.965,0,0,1-3.1.558,7.83,7.83,0,0,1-3.078-.558,5.735,5.735,0,0,1-2.16-1.548,6.667,6.667,0,0,1-1.26-2.214A8.15,8.15,0,0,1,347.94-9.324Z" transform="translate(969 12302)"/><text class="a" transform="translate(970 12257)"><tspan x="0" y="0">LOGO</tspan></text><path d="M-.4,0H1.476l3.78-8.28H19.44L23.22,0h1.872L13.284-25.7H11.412ZM12.348-23.832,18.792-9.72H5.9Zm30.2,10.8a6.782,6.782,0,0,0-.5-2.25,5.3,5.3,0,0,0-1.368-1.872,6.751,6.751,0,0,0-2.592-1.35,14.29,14.29,0,0,0-4.1-.5,12.564,12.564,0,0,0-3.762.486,6.342,6.342,0,0,0-2.394,1.278A4.671,4.671,0,0,0,26.6-15.552a4.729,4.729,0,0,0-.36,1.764,4.169,4.169,0,0,0,.468,2.016,3.92,3.92,0,0,0,1.224,1.386,6.779,6.779,0,0,0,1.638.828,8.5,8.5,0,0,0,1.854.414l6.48.864a5.237,5.237,0,0,1,2.718,1.026,2.828,2.828,0,0,1,.99,2.322A3.39,3.39,0,0,1,40.032-1.89,9.8,9.8,0,0,1,34.884-.864,14.645,14.645,0,0,1,30.8-1.332,5.732,5.732,0,0,1,28.476-2.52,3.7,3.7,0,0,1,27.468-4a8.457,8.457,0,0,1-.36-1.764H25.452A5.676,5.676,0,0,0,28.026-.936,11.927,11.927,0,0,0,34.452.576,23.923,23.923,0,0,0,37.386.4,10.352,10.352,0,0,0,40.194-.36a5.451,5.451,0,0,0,2.214-1.692,4.57,4.57,0,0,0,.864-2.88,4.133,4.133,0,0,0-1.494-3.492,9.083,9.083,0,0,0-4.3-1.548l-5.868-.792a6,6,0,0,1-2.736-.972A2.515,2.515,0,0,1,27.9-13.9a3.132,3.132,0,0,1,1.422-2.646,7.985,7.985,0,0,1,4.59-1.026,9.476,9.476,0,0,1,5.166,1.1A4.269,4.269,0,0,1,40.9-13.032Zm19.332,0a6.782,6.782,0,0,0-.5-2.25,5.3,5.3,0,0,0-1.368-1.872A6.751,6.751,0,0,0,57.42-18.5a14.29,14.29,0,0,0-4.1-.5,12.564,12.564,0,0,0-3.762.486,6.342,6.342,0,0,0-2.394,1.278,4.671,4.671,0,0,0-1.224,1.692,4.729,4.729,0,0,0-.36,1.764,4.169,4.169,0,0,0,.468,2.016,3.92,3.92,0,0,0,1.224,1.386,6.779,6.779,0,0,0,1.638.828,8.5,8.5,0,0,0,1.854.414l6.48.864a5.237,5.237,0,0,1,2.718,1.026,2.828,2.828,0,0,1,.99,2.322A3.39,3.39,0,0,1,59.364-1.89,9.8,9.8,0,0,1,54.216-.864a14.645,14.645,0,0,1-4.086-.468A5.732,5.732,0,0,1,47.808-2.52,3.7,3.7,0,0,1,46.8-4a8.457,8.457,0,0,1-.36-1.764H44.784A5.676,5.676,0,0,0,47.358-.936,11.927,11.927,0,0,0,53.784.576,23.923,23.923,0,0,0,56.718.4,10.352,10.352,0,0,0,59.526-.36,5.451,5.451,0,0,0,61.74-2.052a4.57,4.57,0,0,0,.864-2.88A4.133,4.133,0,0,0,61.11-8.424a9.083,9.083,0,0,0-4.3-1.548l-5.868-.792a6,6,0,0,1-2.736-.972,2.515,2.515,0,0,1-.972-2.16,3.132,3.132,0,0,1,1.422-2.646,7.985,7.985,0,0,1,4.59-1.026,9.476,9.476,0,0,1,5.166,1.1,4.269,4.269,0,0,1,1.818,3.438ZM65.52,0h1.656V-18.432H65.52Zm0-21.888h1.656V-25.7H65.52Zm21.672,8.856a6.782,6.782,0,0,0-.5-2.25,5.3,5.3,0,0,0-1.368-1.872,6.751,6.751,0,0,0-2.592-1.35,14.29,14.29,0,0,0-4.1-.5,12.564,12.564,0,0,0-3.762.486,6.342,6.342,0,0,0-2.394,1.278,4.671,4.671,0,0,0-1.224,1.692,4.729,4.729,0,0,0-.36,1.764,4.169,4.169,0,0,0,.468,2.016,3.92,3.92,0,0,0,1.224,1.386,6.779,6.779,0,0,0,1.638.828,8.5,8.5,0,0,0,1.854.414l6.48.864a5.237,5.237,0,0,1,2.718,1.026,2.828,2.828,0,0,1,.99,2.322A3.39,3.39,0,0,1,84.672-1.89,9.8,9.8,0,0,1,79.524-.864a14.645,14.645,0,0,1-4.086-.468A5.732,5.732,0,0,1,73.116-2.52,3.7,3.7,0,0,1,72.108-4a8.456,8.456,0,0,1-.36-1.764H70.092A5.676,5.676,0,0,0,72.666-.936,11.927,11.927,0,0,0,79.092.576,23.923,23.923,0,0,0,82.026.4,10.352,10.352,0,0,0,84.834-.36a5.451,5.451,0,0,0,2.214-1.692,4.57,4.57,0,0,0,.864-2.88,4.133,4.133,0,0,0-1.494-3.492,9.083,9.083,0,0,0-4.3-1.548l-5.868-.792a6,6,0,0,1-2.736-.972,2.515,2.515,0,0,1-.972-2.16,3.132,3.132,0,0,1,1.422-2.646,7.985,7.985,0,0,1,4.59-1.026,9.476,9.476,0,0,1,5.166,1.1,4.269,4.269,0,0,1,1.818,3.438Zm5.292-5.4H88.308v1.44h4.176V-4.608A6.443,6.443,0,0,0,93.348-.72Q94.212.36,96.984.36A14.464,14.464,0,0,0,99.792.144V-1.3q-.4.036-.756.072a12.55,12.55,0,0,1-1.548.144A4.8,4.8,0,0,1,94.95-1.6a2.333,2.333,0,0,1-.81-2.106V-16.992h5.472v-1.44H94.14V-24.66H92.484Zm24.66,11.52a4.812,4.812,0,0,1-.774,2.718,6.086,6.086,0,0,1-2.034,1.908,9.691,9.691,0,0,1-2.754,1.08,13.275,13.275,0,0,1-2.97.342,13.863,13.863,0,0,1-2-.144,6.97,6.97,0,0,1-1.926-.576,3.6,3.6,0,0,1-1.512-1.3,3.812,3.812,0,0,1-.576-2.16,3.069,3.069,0,0,1,1.368-2.808,8.532,8.532,0,0,1,3.924-1.044l6.228-.432a4.386,4.386,0,0,0,2.952-.972h.072Zm-13.716-5.832a5.449,5.449,0,0,1,1.872-3.708q1.476-1.116,5-1.116,3.852,0,5.346,1.062a3.578,3.578,0,0,1,1.494,3.114,2.594,2.594,0,0,1-.594,2.052,4.227,4.227,0,0,1-2.214.576l-6.444.432a13.157,13.157,0,0,0-2.736.4A7.61,7.61,0,0,0,102.978-9a4.35,4.35,0,0,0-1.494,1.6,4.855,4.855,0,0,0-.54,2.358,5.128,5.128,0,0,0,.882,3.132,5.036,5.036,0,0,0,2.16,1.71,9.086,9.086,0,0,0,2.358.648,18.625,18.625,0,0,0,2.16.126,17.846,17.846,0,0,0,2.25-.144,11.1,11.1,0,0,0,2.376-.594,8.4,8.4,0,0,0,2.34-1.314,6.963,6.963,0,0,0,1.818-2.2h.072a9.415,9.415,0,0,0,.36,3.132q.36.9,1.908.9a5.98,5.98,0,0,0,2.016-.288v-1.44a5.137,5.137,0,0,1-1.62.288q-.828,0-1.026-.486a5.076,5.076,0,0,1-.2-1.71V-13.608a4.425,4.425,0,0,0-2.106-4.194,13.129,13.129,0,0,0-6.354-1.206q-4.212,0-6.156,1.4t-2.412,4.86ZM123.372,0h1.656V-10.764a7,7,0,0,1,.468-2.52,6.23,6.23,0,0,1,1.44-2.2,6.785,6.785,0,0,1,2.466-1.53,9.791,9.791,0,0,1,3.438-.558,11.051,11.051,0,0,1,3.33.432,4.734,4.734,0,0,1,2.106,1.26,4.833,4.833,0,0,1,1.08,1.962,9.525,9.525,0,0,1,.324,2.61V0h1.656V-11.376a15.763,15.763,0,0,0-.18-2.466,6.018,6.018,0,0,0-.972-2.34A5.874,5.874,0,0,0,137.61-18.2a11.581,11.581,0,0,0-4.734-.81,9.173,9.173,0,0,0-4.86,1.188,7.743,7.743,0,0,0-2.916,3.06h-.072v-3.672h-1.656Zm23.8-18.432h-4.176v1.44h4.176V-4.608a6.443,6.443,0,0,0,.864,3.888Q148.9.36,151.668.36a14.464,14.464,0,0,0,2.808-.216V-1.3q-.4.036-.756.072a12.55,12.55,0,0,1-1.548.144,4.8,4.8,0,0,1-2.538-.522,2.333,2.333,0,0,1-.81-2.106V-16.992H154.3v-1.44h-5.472V-24.66h-1.656Zm18.108,9.216a8.828,8.828,0,0,1,.558-3.114,8.087,8.087,0,0,1,1.656-2.682,7.646,7.646,0,0,1,2.772-1.872,9.866,9.866,0,0,1,3.762-.684,9.7,9.7,0,0,1,3.762.684,7.891,7.891,0,0,1,2.754,1.872,7.945,7.945,0,0,1,1.674,2.682,8.828,8.828,0,0,1,.558,3.114,8.828,8.828,0,0,1-.558,3.114,8.087,8.087,0,0,1-1.656,2.682A7.676,7.676,0,0,1,177.8-1.548a9.83,9.83,0,0,1-3.78.684,9.729,9.729,0,0,1-3.744-.684,7.856,7.856,0,0,1-2.772-1.872A7.945,7.945,0,0,1,165.834-6.1,8.828,8.828,0,0,1,165.276-9.216Zm-1.656,0a10.075,10.075,0,0,0,.7,3.726,9.286,9.286,0,0,0,2.052,3.15A9.458,9.458,0,0,0,169.686-.2a11.725,11.725,0,0,0,4.338.774A11.687,11.687,0,0,0,178.38-.2a9.492,9.492,0,0,0,3.294-2.142,9.286,9.286,0,0,0,2.052-3.15,10.075,10.075,0,0,0,.7-3.726,10.075,10.075,0,0,0-.7-3.726,9.286,9.286,0,0,0-2.052-3.15,9.492,9.492,0,0,0-3.294-2.142,11.687,11.687,0,0,0-4.356-.774,11.725,11.725,0,0,0-4.338.774,9.458,9.458,0,0,0-3.312,2.142,9.286,9.286,0,0,0-2.052,3.15A10.075,10.075,0,0,0,163.62-9.216ZM187.38,0h1.656V-10.764a7,7,0,0,1,.468-2.52,6.23,6.23,0,0,1,1.44-2.2,6.785,6.785,0,0,1,2.466-1.53,9.791,9.791,0,0,1,3.438-.558,11.051,11.051,0,0,1,3.33.432,4.733,4.733,0,0,1,2.106,1.26,4.833,4.833,0,0,1,1.08,1.962,9.525,9.525,0,0,1,.324,2.61V0h1.656V-11.376a15.765,15.765,0,0,0-.18-2.466,6.019,6.019,0,0,0-.972-2.34,5.874,5.874,0,0,0-2.574-2.016,11.581,11.581,0,0,0-4.734-.81,9.173,9.173,0,0,0-4.86,1.188,7.743,7.743,0,0,0-2.916,3.06h-.072v-3.672H187.38Zm36.828,0-.936,1.872q-.576,1.152-.954,1.764a4.1,4.1,0,0,1-.774.954,2.161,2.161,0,0,1-.9.468,5.88,5.88,0,0,1-1.368.126H217.3v1.44h2.3a4.467,4.467,0,0,0,2.952-.828,7.682,7.682,0,0,0,1.8-2.556L234.5-18.432h-1.872l-7.6,16.6-8.28-16.6h-1.872Zm12.42-9.216a8.828,8.828,0,0,1,.558-3.114,8.087,8.087,0,0,1,1.656-2.682,7.646,7.646,0,0,1,2.772-1.872,9.866,9.866,0,0,1,3.762-.684,9.7,9.7,0,0,1,3.762.684,7.891,7.891,0,0,1,2.754,1.872,7.945,7.945,0,0,1,1.674,2.682,8.828,8.828,0,0,1,.558,3.114,8.828,8.828,0,0,1-.558,3.114A8.087,8.087,0,0,1,251.91-3.42a7.676,7.676,0,0,1-2.754,1.872,9.83,9.83,0,0,1-3.78.684,9.729,9.729,0,0,1-3.744-.684A7.856,7.856,0,0,1,238.86-3.42,7.945,7.945,0,0,1,237.186-6.1,8.828,8.828,0,0,1,236.628-9.216Zm-1.656,0a10.075,10.075,0,0,0,.7,3.726,9.286,9.286,0,0,0,2.052,3.15A9.458,9.458,0,0,0,241.038-.2a11.725,11.725,0,0,0,4.338.774A11.687,11.687,0,0,0,249.732-.2a9.492,9.492,0,0,0,3.294-2.142,9.286,9.286,0,0,0,2.052-3.15,10.075,10.075,0,0,0,.7-3.726,10.075,10.075,0,0,0-.7-3.726,9.286,9.286,0,0,0-2.052-3.15,9.492,9.492,0,0,0-3.294-2.142,11.687,11.687,0,0,0-4.356-.774,11.725,11.725,0,0,0-4.338.774,9.458,9.458,0,0,0-3.312,2.142,9.286,9.286,0,0,0-2.052,3.15A10.075,10.075,0,0,0,234.972-9.216ZM276.7-18.432H275.04V-7.668a7,7,0,0,1-.468,2.52,6.23,6.23,0,0,1-1.44,2.2,6.809,6.809,0,0,1-2.448,1.53,9.754,9.754,0,0,1-3.456.558,10.638,10.638,0,0,1-3.33-.45,4.961,4.961,0,0,1-2.106-1.26,4.688,4.688,0,0,1-1.08-1.944,9.525,9.525,0,0,1-.324-2.61v-11.3h-1.656V-7.056a15.859,15.859,0,0,0,.18,2.448,6.016,6.016,0,0,0,.972,2.358,5.874,5.874,0,0,0,2.574,2.016,11.58,11.58,0,0,0,4.734.81A9.152,9.152,0,0,0,272.07-.612a7.779,7.779,0,0,0,2.9-3.06h.072V0H276.7ZM280.728,0h1.656V-9.972a7.673,7.673,0,0,1,1.89-5.2,6.611,6.611,0,0,1,5.274-2.178,9.643,9.643,0,0,1,1.17.054,3.96,3.96,0,0,1,.738.162v-1.656a5.028,5.028,0,0,0-1.368-.216,8.689,8.689,0,0,0-4.734,1.26,7.137,7.137,0,0,0-2.9,3.672h-.072v-4.356h-1.656Zm26.964-2.088-6.66-16.344H299.16L306.684,0h1.872l6.48-16.56L321.516,0h1.872l7.524-18.432H329.04L322.6-2.088,316.08-18.432h-2.088ZM332.712,0h1.656V-9.972a7.673,7.673,0,0,1,1.89-5.2,6.611,6.611,0,0,1,5.274-2.178,9.643,9.643,0,0,1,1.17.054,3.96,3.96,0,0,1,.738.162v-1.656a5.028,5.028,0,0,0-1.368-.216,8.689,8.689,0,0,0-4.734,1.26,7.137,7.137,0,0,0-2.9,3.672h-.072v-4.356h-1.656Zm12.816,0h1.656V-18.432h-1.656Zm0-21.888h1.656V-25.7h-1.656ZM367.2-13.032a6.782,6.782,0,0,0-.5-2.25,5.3,5.3,0,0,0-1.368-1.872,6.751,6.751,0,0,0-2.592-1.35,14.29,14.29,0,0,0-4.1-.5,12.564,12.564,0,0,0-3.762.486,6.342,6.342,0,0,0-2.394,1.278,4.671,4.671,0,0,0-1.224,1.692,4.73,4.73,0,0,0-.36,1.764,4.169,4.169,0,0,0,.468,2.016,3.92,3.92,0,0,0,1.224,1.386,6.779,6.779,0,0,0,1.638.828,8.5,8.5,0,0,0,1.854.414l6.48.864a5.237,5.237,0,0,1,2.718,1.026,2.828,2.828,0,0,1,.99,2.322A3.39,3.39,0,0,1,364.68-1.89a9.8,9.8,0,0,1-5.148,1.026,14.645,14.645,0,0,1-4.086-.468,5.732,5.732,0,0,1-2.322-1.188A3.7,3.7,0,0,1,352.116-4a8.456,8.456,0,0,1-.36-1.764H350.1a5.676,5.676,0,0,0,2.574,4.824A11.927,11.927,0,0,0,359.1.576,23.923,23.923,0,0,0,362.034.4a10.352,10.352,0,0,0,2.808-.756,5.451,5.451,0,0,0,2.214-1.692,4.57,4.57,0,0,0,.864-2.88,4.133,4.133,0,0,0-1.494-3.492,9.083,9.083,0,0,0-4.3-1.548l-5.868-.792a6,6,0,0,1-2.736-.972,2.515,2.515,0,0,1-.972-2.16,3.132,3.132,0,0,1,1.422-2.646,7.985,7.985,0,0,1,4.59-1.026,9.476,9.476,0,0,1,5.166,1.1,4.269,4.269,0,0,1,1.818,3.438Zm5.292-5.4h-4.176v1.44h4.176V-4.608a6.443,6.443,0,0,0,.864,3.888Q374.22.36,376.992.36A14.464,14.464,0,0,0,379.8.144V-1.3q-.4.036-.756.072a12.55,12.55,0,0,1-1.548.144,4.8,4.8,0,0,1-2.538-.522,2.333,2.333,0,0,1-.81-2.106V-16.992h5.472v-1.44h-5.472V-24.66h-1.656Z" transform="translate(969 12441)"/><path d="M18.612-10.26H7.236L12.96-23.04ZM23.112,0h3.1L14.544-25.7h-3.1L-.216,0h2.88L6.156-7.812H19.692ZM44.424-13.176a5.951,5.951,0,0,0-2.358-4.59Q39.96-19.3,35.532-19.3a10.053,10.053,0,0,0-6.012,1.512,4.762,4.762,0,0,0-2.052,4.032A4.073,4.073,0,0,0,29.232-10.1Q31-8.928,35.352-8.5q2.2.216,3.582.486a9.363,9.363,0,0,1,2.178.648,2.487,2.487,0,0,1,1.1.882,2.39,2.39,0,0,1,.306,1.26,2.832,2.832,0,0,1-1.6,2.772,10.727,10.727,0,0,1-4.626.792,10.355,10.355,0,0,1-5.13-.936,4.358,4.358,0,0,1-1.89-3.276H26.82a5.386,5.386,0,0,0,2.448,4.86Q31.716.576,36.288.576q4.356,0,6.624-1.566A5.018,5.018,0,0,0,45.18-5.364,3.983,3.983,0,0,0,43.4-9.072a17.833,17.833,0,0,0-6.318-1.692q-2.232-.288-3.564-.54a10.953,10.953,0,0,1-2.07-.558,2.093,2.093,0,0,1-1.026-.774,2.31,2.31,0,0,1-.288-1.224,2.705,2.705,0,0,1,.432-1.566,2.933,2.933,0,0,1,1.188-.99,6.063,6.063,0,0,1,1.71-.5,13.9,13.9,0,0,1,2.07-.144,9.207,9.207,0,0,1,4.482.846,4.436,4.436,0,0,1,1.962,3.042Zm20.016,0a5.951,5.951,0,0,0-2.358-4.59q-2.106-1.53-6.534-1.53a10.053,10.053,0,0,0-6.012,1.512,4.762,4.762,0,0,0-2.052,4.032A4.073,4.073,0,0,0,49.248-10.1q1.764,1.17,6.12,1.6,2.2.216,3.582.486a9.363,9.363,0,0,1,2.178.648,2.487,2.487,0,0,1,1.1.882,2.39,2.39,0,0,1,.306,1.26,2.832,2.832,0,0,1-1.6,2.772,10.727,10.727,0,0,1-4.626.792,10.355,10.355,0,0,1-5.13-.936,4.358,4.358,0,0,1-1.89-3.276H46.836a5.386,5.386,0,0,0,2.448,4.86Q51.732.576,56.3.576q4.356,0,6.624-1.566A5.018,5.018,0,0,0,65.2-5.364a3.983,3.983,0,0,0-1.782-3.708A17.833,17.833,0,0,0,57.1-10.764q-2.232-.288-3.564-.54a10.953,10.953,0,0,1-2.07-.558,2.093,2.093,0,0,1-1.026-.774,2.31,2.31,0,0,1-.288-1.224,2.705,2.705,0,0,1,.432-1.566,2.933,2.933,0,0,1,1.188-.99,6.063,6.063,0,0,1,1.71-.5,13.9,13.9,0,0,1,2.07-.144,9.207,9.207,0,0,1,4.482.846,4.436,4.436,0,0,1,1.962,3.042ZM68,0h2.664V-18.72H68Zm0-21.96h2.664v-3.96H68ZM91.08-13.176a5.951,5.951,0,0,0-2.358-4.59q-2.106-1.53-6.534-1.53a10.054,10.054,0,0,0-6.012,1.512,4.762,4.762,0,0,0-2.052,4.032A4.073,4.073,0,0,0,75.888-10.1q1.764,1.17,6.12,1.6,2.2.216,3.582.486a9.363,9.363,0,0,1,2.178.648,2.487,2.487,0,0,1,1.1.882,2.39,2.39,0,0,1,.306,1.26,2.832,2.832,0,0,1-1.6,2.772,10.727,10.727,0,0,1-4.626.792,10.355,10.355,0,0,1-5.13-.936,4.358,4.358,0,0,1-1.89-3.276H73.476a5.386,5.386,0,0,0,2.448,4.86Q78.372.576,82.944.576,87.3.576,89.568-.99a5.018,5.018,0,0,0,2.268-4.374,3.983,3.983,0,0,0-1.782-3.708,17.833,17.833,0,0,0-6.318-1.692q-2.232-.288-3.564-.54a10.953,10.953,0,0,1-2.07-.558,2.093,2.093,0,0,1-1.026-.774,2.31,2.31,0,0,1-.288-1.224,2.7,2.7,0,0,1,.432-1.566,2.933,2.933,0,0,1,1.188-.99,6.063,6.063,0,0,1,1.71-.5,13.9,13.9,0,0,1,2.07-.144,9.207,9.207,0,0,1,4.482.846,4.436,4.436,0,0,1,1.962,3.042Zm5.436-5.544H92.448V-16.7h4.068V-4.356A5.039,5.039,0,0,0,97.56-.828q1.044,1.116,4,1.116a20.625,20.625,0,0,0,2.916-.216V-2.16a12.968,12.968,0,0,1-2.628.216A3,3,0,0,1,99.738-2.5,2.5,2.5,0,0,1,99.18-4.32V-16.7h5.292V-18.72H99.18v-5.9H96.516ZM122.292-7.236a4.568,4.568,0,0,1-.684,2.466,5.829,5.829,0,0,1-1.836,1.836,9.122,9.122,0,0,1-2.538,1.116,10.43,10.43,0,0,1-2.754.378,7.752,7.752,0,0,1-3.906-.864A3.094,3.094,0,0,1,109.08-5.22a2.708,2.708,0,0,1,1.242-2.43,8.092,8.092,0,0,1,3.654-1.026l.612-.072q4.068-.36,5.49-.594a5.967,5.967,0,0,0,2.214-.738Zm-12.6-5.724a3.735,3.735,0,0,1,1.674-3.15,9.168,9.168,0,0,1,4.734-.954,10.064,10.064,0,0,1,4.752.828,3.008,3.008,0,0,1,1.44,2.844,2.457,2.457,0,0,1-.216,1.152,1.583,1.583,0,0,1-.864.648,8.053,8.053,0,0,1-1.89.4q-1.242.144-3.582.288-1.944.108-3.456.342a11.4,11.4,0,0,0-2.862.828,5.209,5.209,0,0,0-2.178,1.746,4.936,4.936,0,0,0-.828,2.952,4.947,4.947,0,0,0,.648,2.592A5.118,5.118,0,0,0,108.792-.7a8.045,8.045,0,0,0,2.34.972,10.792,10.792,0,0,0,2.556.306A15.817,15.817,0,0,0,117.4.2a9.193,9.193,0,0,0,2.538-.972,7.042,7.042,0,0,0,1.512-1.152,10.456,10.456,0,0,0,.99-1.242h.072a7.837,7.837,0,0,0,.09,1.242A2.783,2.783,0,0,0,122.976-.9a2.047,2.047,0,0,0,.882.756,3.515,3.515,0,0,0,1.53.288,12.067,12.067,0,0,0,2.124-.252.276.276,0,0,1,.108-.036v-1.8q-.936.072-1.4.072a1.31,1.31,0,0,1-1.134-.468,2.849,2.849,0,0,1-.342-1.62v-9.792a4.715,4.715,0,0,0-2-4.176q-2-1.368-6.57-1.368t-6.588,1.6a6.607,6.607,0,0,0-2.34,4.734ZM145.3,0h2.664V-11.592a11.008,11.008,0,0,0-.414-3.15,6.246,6.246,0,0,0-1.332-2.412,5.911,5.911,0,0,0-2.5-1.584,11.662,11.662,0,0,0-3.852-.558,9.231,9.231,0,0,0-4.968,1.3,6.569,6.569,0,0,0-2.772,2.952h-.072V-18.72h-2.664V0h2.664V-10.152a6.736,6.736,0,0,1,1.89-5.094q1.89-1.818,5.706-1.818a6.577,6.577,0,0,1,4.176,1.17A4.6,4.6,0,0,1,145.3-12.06Zm8.568-18.72H149.8V-16.7h4.068V-4.356a5.039,5.039,0,0,0,1.044,3.528q1.044,1.116,4,1.116A20.625,20.625,0,0,0,161.82.072V-2.16a12.968,12.968,0,0,1-2.628.216,3,3,0,0,1-2.106-.558,2.5,2.5,0,0,1-.558-1.818V-16.7h5.292V-18.72h-5.292v-5.9h-2.664Zm22.9,9.36a7.545,7.545,0,0,1,2.124-5.58,7.881,7.881,0,0,1,5.832-2.124,7.881,7.881,0,0,1,5.832,2.124,7.545,7.545,0,0,1,2.124,5.58,7.545,7.545,0,0,1-2.124,5.58,7.881,7.881,0,0,1-5.832,2.124,7.881,7.881,0,0,1-5.832-2.124A7.545,7.545,0,0,1,176.76-9.36Zm-2.664,0a10.805,10.805,0,0,0,.666,3.78,9.116,9.116,0,0,0,2,3.186,9.287,9.287,0,0,0,3.33,2.178,12.5,12.5,0,0,0,4.626.792,12.638,12.638,0,0,0,4.644-.792,9.259,9.259,0,0,0,3.348-2.178,8.9,8.9,0,0,0,1.98-3.186,11.074,11.074,0,0,0,.648-3.78,11.074,11.074,0,0,0-.648-3.78,8.9,8.9,0,0,0-1.98-3.186A9.259,9.259,0,0,0,189.36-18.5a12.638,12.638,0,0,0-4.644-.792,12.5,12.5,0,0,0-4.626.792,9.287,9.287,0,0,0-3.33,2.178,9.116,9.116,0,0,0-2,3.186A10.805,10.805,0,0,0,174.1-9.36ZM214.7,0h2.664V-11.592a11.008,11.008,0,0,0-.414-3.15,6.246,6.246,0,0,0-1.332-2.412,5.911,5.911,0,0,0-2.5-1.584,11.662,11.662,0,0,0-3.852-.558A9.231,9.231,0,0,0,204.3-18a6.569,6.569,0,0,0-2.772,2.952h-.072V-18.72h-2.664V0h2.664V-10.152a6.736,6.736,0,0,1,1.89-5.094q1.89-1.818,5.706-1.818a6.577,6.577,0,0,1,4.176,1.17A4.6,4.6,0,0,1,214.7-12.06Zm25.02-3.132L232.092-18.72h-2.88L238.32.144,237.1,2.736a3.84,3.84,0,0,1-1.422,1.836,4.608,4.608,0,0,1-2.286.468q-.756,0-1.908-.072V7.2q.792.072,2.556.072a5.82,5.82,0,0,0,3.312-.774,7.474,7.474,0,0,0,2.16-3.006L249.66-18.72h-2.88ZM253.512-9.36a7.545,7.545,0,0,1,2.124-5.58,7.881,7.881,0,0,1,5.832-2.124A7.881,7.881,0,0,1,267.3-14.94a7.545,7.545,0,0,1,2.124,5.58A7.545,7.545,0,0,1,267.3-3.78a7.881,7.881,0,0,1-5.832,2.124,7.881,7.881,0,0,1-5.832-2.124A7.545,7.545,0,0,1,253.512-9.36Zm-2.664,0a10.805,10.805,0,0,0,.666,3.78,9.115,9.115,0,0,0,2,3.186,9.287,9.287,0,0,0,3.33,2.178,12.5,12.5,0,0,0,4.626.792,12.638,12.638,0,0,0,4.644-.792,9.259,9.259,0,0,0,3.348-2.178,8.9,8.9,0,0,0,1.98-3.186,11.075,11.075,0,0,0,.648-3.78,11.075,11.075,0,0,0-.648-3.78,8.9,8.9,0,0,0-1.98-3.186,9.259,9.259,0,0,0-3.348-2.178,12.638,12.638,0,0,0-4.644-.792,12.5,12.5,0,0,0-4.626.792,9.287,9.287,0,0,0-3.33,2.178,9.115,9.115,0,0,0-2,3.186A10.805,10.805,0,0,0,250.848-9.36ZM291.456,0h2.664V-18.72h-2.664V-8.568a6.736,6.736,0,0,1-1.89,5.094q-1.89,1.818-5.706,1.818a6.577,6.577,0,0,1-4.176-1.17,4.6,4.6,0,0,1-1.476-3.834V-18.72h-2.664V-7.128a11.008,11.008,0,0,0,.414,3.15,6.246,6.246,0,0,0,1.332,2.412,5.911,5.911,0,0,0,2.5,1.584,11.662,11.662,0,0,0,3.852.558,9.324,9.324,0,0,0,4.986-1.3,6.329,6.329,0,0,0,2.754-2.952h.072Zm6.768,0h2.664V-9.54a8.8,8.8,0,0,1,.558-3.294,5.769,5.769,0,0,1,1.494-2.214,5.97,5.97,0,0,1,2.052-1.206,7.026,7.026,0,0,1,2.268-.378,14.061,14.061,0,0,1,2.448.216v-2.736a8.838,8.838,0,0,0-1.584-.144,8.587,8.587,0,0,0-2.79.414,6.241,6.241,0,0,0-2.034,1.116,7.084,7.084,0,0,0-1.368,1.53,12.815,12.815,0,0,0-.972,1.8h-.072V-18.72h-2.664Zm44.388-3.492-5.76-15.228h-2.88L328.32-3.384,322.38-18.72H319.5L326.916,0h2.88l5.58-14.976L341.028,0h2.88l7.6-18.72h-2.88ZM353.556,0h2.664V-9.54a8.8,8.8,0,0,1,.558-3.294,5.769,5.769,0,0,1,1.494-2.214,5.97,5.97,0,0,1,2.052-1.206,7.026,7.026,0,0,1,2.268-.378,14.061,14.061,0,0,1,2.448.216v-2.736a8.838,8.838,0,0,0-1.584-.144,8.587,8.587,0,0,0-2.79.414,6.241,6.241,0,0,0-2.034,1.116,7.084,7.084,0,0,0-1.368,1.53,12.815,12.815,0,0,0-.972,1.8h-.072V-18.72h-2.664ZM366.8,0h2.664V-18.72H366.8Zm0-21.96h2.664v-3.96H366.8Zm23.076,8.784a5.951,5.951,0,0,0-2.358-4.59q-2.106-1.53-6.534-1.53a10.053,10.053,0,0,0-6.012,1.512,4.762,4.762,0,0,0-2.052,4.032,4.073,4.073,0,0,0,1.764,3.654q1.764,1.17,6.12,1.6,2.2.216,3.582.486a9.362,9.362,0,0,1,2.178.648,2.487,2.487,0,0,1,1.1.882,2.39,2.39,0,0,1,.306,1.26,2.832,2.832,0,0,1-1.6,2.772,10.727,10.727,0,0,1-4.626.792,10.355,10.355,0,0,1-5.13-.936,4.358,4.358,0,0,1-1.89-3.276h-2.448a5.386,5.386,0,0,0,2.448,4.86q2.448,1.584,7.02,1.584,4.356,0,6.624-1.566a5.018,5.018,0,0,0,2.268-4.374,3.983,3.983,0,0,0-1.782-3.708,17.833,17.833,0,0,0-6.318-1.692q-2.232-.288-3.564-.54a10.952,10.952,0,0,1-2.07-.558,2.093,2.093,0,0,1-1.026-.774,2.31,2.31,0,0,1-.288-1.224,2.705,2.705,0,0,1,.432-1.566,2.933,2.933,0,0,1,1.188-.99,6.063,6.063,0,0,1,1.71-.5,13.9,13.9,0,0,1,2.07-.144,9.207,9.207,0,0,1,4.482.846,4.436,4.436,0,0,1,1.962,3.042Zm5.436-5.544h-4.068V-16.7h4.068V-4.356A5.039,5.039,0,0,0,396.36-.828q1.044,1.116,4,1.116a20.626,20.626,0,0,0,2.916-.216V-2.16a12.968,12.968,0,0,1-2.628.216,2.994,2.994,0,0,1-2.106-.558,2.5,2.5,0,0,1-.558-1.818V-16.7h5.292V-18.72H397.98v-5.9h-2.664Z" transform="translate(969 12503)"/><path d="M18.432-10.8H8.676L13.5-22.176ZM23.112,0h4.356L15.84-25.7H11.484L-.144,0h4.1L7.236-7.488h12.6ZM28.44-5.94a6.624,6.624,0,0,0,1.026,3.258,6.1,6.1,0,0,0,2.25,2.034A10.215,10.215,0,0,0,34.686.36a19.218,19.218,0,0,0,3.4.288,12.758,12.758,0,0,0,6.966-1.62,5.371,5.371,0,0,0,2.5-4.824A4.012,4.012,0,0,0,46.008-9.09a10.376,10.376,0,0,0-5.04-1.71l-5.112-.684a5.221,5.221,0,0,1-2.484-.792,1.9,1.9,0,0,1-.648-1.548,2.216,2.216,0,0,1,.432-1.368,2.888,2.888,0,0,1,1.152-.9,6.413,6.413,0,0,1,1.584-.468,10.937,10.937,0,0,1,1.8-.144,7.292,7.292,0,0,1,4.122.99,3.157,3.157,0,0,1,1.53,2.538h3.6a6.2,6.2,0,0,0-2.52-4.626q-2.268-1.71-6.7-1.71a10.787,10.787,0,0,0-6.3,1.62,5.163,5.163,0,0,0-2.3,4.464,4.344,4.344,0,0,0,1.476,3.4,6.646,6.646,0,0,0,3.636,1.6l5.94.792a6.41,6.41,0,0,1,2.808.864,1.957,1.957,0,0,1,.756,1.656,2.288,2.288,0,0,1-.27,1.062,2.646,2.646,0,0,1-.918.954,5.312,5.312,0,0,1-1.782.684,13.1,13.1,0,0,1-2.79.252A10.019,10.019,0,0,1,35.19-2.5a5.239,5.239,0,0,1-1.854-.9,3.519,3.519,0,0,1-.99-1.206A3.087,3.087,0,0,1,32.04-5.94Zm21.348,0a6.624,6.624,0,0,0,1.026,3.258,6.1,6.1,0,0,0,2.25,2.034A10.215,10.215,0,0,0,56.034.36a19.218,19.218,0,0,0,3.4.288A12.758,12.758,0,0,0,66.4-.972,5.371,5.371,0,0,0,68.9-5.8,4.012,4.012,0,0,0,67.356-9.09a10.377,10.377,0,0,0-5.04-1.71L57.2-11.484a5.221,5.221,0,0,1-2.484-.792,1.9,1.9,0,0,1-.648-1.548,2.216,2.216,0,0,1,.432-1.368,2.888,2.888,0,0,1,1.152-.9,6.413,6.413,0,0,1,1.584-.468,10.937,10.937,0,0,1,1.8-.144,7.292,7.292,0,0,1,4.122.99,3.157,3.157,0,0,1,1.53,2.538h3.6a6.2,6.2,0,0,0-2.52-4.626q-2.268-1.71-6.7-1.71a10.787,10.787,0,0,0-6.3,1.62,5.163,5.163,0,0,0-2.3,4.464,4.344,4.344,0,0,0,1.476,3.4,6.646,6.646,0,0,0,3.636,1.6l5.94.792a6.41,6.41,0,0,1,2.808.864,1.957,1.957,0,0,1,.756,1.656,2.288,2.288,0,0,1-.27,1.062A2.646,2.646,0,0,1,63.9-3.1a5.312,5.312,0,0,1-1.782.684,13.1,13.1,0,0,1-2.79.252,10.019,10.019,0,0,1-2.79-.342,5.239,5.239,0,0,1-1.854-.9,3.519,3.519,0,0,1-.99-1.206,3.087,3.087,0,0,1-.306-1.332ZM72.216,0h3.6V-18.864h-3.6Zm0-21.96h3.6v-3.96h-3.6ZM79.128-5.94a6.624,6.624,0,0,0,1.026,3.258A6.1,6.1,0,0,0,82.4-.648,10.215,10.215,0,0,0,85.374.36a19.218,19.218,0,0,0,3.4.288,12.758,12.758,0,0,0,6.966-1.62,5.371,5.371,0,0,0,2.5-4.824A4.012,4.012,0,0,0,96.7-9.09a10.377,10.377,0,0,0-5.04-1.71l-5.112-.684a5.221,5.221,0,0,1-2.484-.792,1.9,1.9,0,0,1-.648-1.548,2.215,2.215,0,0,1,.432-1.368,2.888,2.888,0,0,1,1.152-.9,6.414,6.414,0,0,1,1.584-.468,10.937,10.937,0,0,1,1.8-.144,7.292,7.292,0,0,1,4.122.99,3.157,3.157,0,0,1,1.53,2.538h3.6a6.2,6.2,0,0,0-2.52-4.626q-2.268-1.71-6.7-1.71a10.787,10.787,0,0,0-6.3,1.62,5.163,5.163,0,0,0-2.3,4.464,4.344,4.344,0,0,0,1.476,3.4,6.646,6.646,0,0,0,3.636,1.6l5.94.792a6.41,6.41,0,0,1,2.808.864,1.957,1.957,0,0,1,.756,1.656,2.288,2.288,0,0,1-.27,1.062,2.646,2.646,0,0,1-.918.954,5.312,5.312,0,0,1-1.782.684,13.1,13.1,0,0,1-2.79.252,10.019,10.019,0,0,1-2.79-.342,5.239,5.239,0,0,1-1.854-.9,3.519,3.519,0,0,1-.99-1.206,3.087,3.087,0,0,1-.306-1.332ZM103.14-18.864H99.252v2.808h3.888v12.24a4.377,4.377,0,0,0,1.206,3.294,5.234,5.234,0,0,0,3.762,1.17A24.78,24.78,0,0,0,112.14.4V-2.628a14.712,14.712,0,0,1-2.484.252,3.984,3.984,0,0,1-2.178-.486,1.737,1.737,0,0,1-.738-1.566V-16.056h5.4v-2.808h-5.4v-5.8h-3.6Zm15.084,5.9a3.149,3.149,0,0,1,1.656-2.9,8.868,8.868,0,0,1,4.176-.846,16.472,16.472,0,0,1,2.142.126,6.055,6.055,0,0,1,1.71.468,2.729,2.729,0,0,1,1.17.954,2.7,2.7,0,0,1,.414,1.548,1.732,1.732,0,0,1-.774,1.638,6.606,6.606,0,0,1-2.5.63l-4.1.432q-4.464.468-6.282,1.836a4.73,4.73,0,0,0-1.818,4.032,6.03,6.03,0,0,0,.342,2.016,4.708,4.708,0,0,0,1.188,1.8,6.218,6.218,0,0,0,2.376,1.35,11.754,11.754,0,0,0,3.762.522,13.694,13.694,0,0,0,4.7-.828,6.963,6.963,0,0,0,3.33-2.232,2.8,2.8,0,0,0,.972,2.07,3.908,3.908,0,0,0,2.268.558A17.107,17.107,0,0,0,135.756,0V-2.52a6.534,6.534,0,0,1-1.26.144A1.432,1.432,0,0,1,132.876-4V-14.148a4.392,4.392,0,0,0-.774-2.628,5.157,5.157,0,0,0-2.034-1.674,10.08,10.08,0,0,0-2.772-.828,20.216,20.216,0,0,0-3.1-.234,12.027,12.027,0,0,0-6.678,1.548,6.431,6.431,0,0,0-2.682,5Zm11.268,5.508a4,4,0,0,1-.594,2.124,5.7,5.7,0,0,1-1.62,1.692,7.7,7.7,0,0,1-2.394,1.1A10.767,10.767,0,0,1,122-2.16a5.547,5.547,0,0,1-3.168-.828,2.508,2.508,0,0,1-1.224-2.16,2.373,2.373,0,0,1,1.026-2.124,7.887,7.887,0,0,1,3.258-.972l4.068-.5a16.556,16.556,0,0,0,2.358-.45,2.551,2.551,0,0,0,1.17-.666ZM138.2,0h3.6V-10.872a5.055,5.055,0,0,1,1.8-4.14A6.7,6.7,0,0,1,148-16.488a6.593,6.593,0,0,1,4.212,1.116,3.939,3.939,0,0,1,1.368,3.24V0h3.6V-12.852a5.9,5.9,0,0,0-2.16-5.022,9.3,9.3,0,0,0-5.76-1.638,10.767,10.767,0,0,0-4.23.828,6.862,6.862,0,0,0-3.15,2.664H141.8v-2.844h-3.6Zm24.948-18.864h-3.888v2.808h3.888v12.24a4.377,4.377,0,0,0,1.206,3.294A5.234,5.234,0,0,0,168.12.648,24.78,24.78,0,0,0,172.152.4V-2.628a14.712,14.712,0,0,1-2.484.252,3.984,3.984,0,0,1-2.178-.486,1.737,1.737,0,0,1-.738-1.566V-16.056h5.4v-2.808h-5.4v-5.8h-3.6Zm22.932,9.432a11,11,0,0,0,.684,3.906,8.932,8.932,0,0,0,2.07,3.2,9.72,9.72,0,0,0,3.456,2.178,13.183,13.183,0,0,0,4.734.792,13.147,13.147,0,0,0,4.752-.792,9.749,9.749,0,0,0,3.438-2.178,8.932,8.932,0,0,0,2.07-3.2,11,11,0,0,0,.684-3.906,11,11,0,0,0-.684-3.906,8.932,8.932,0,0,0-2.07-3.2,9.749,9.749,0,0,0-3.438-2.178,13.147,13.147,0,0,0-4.752-.792,13.183,13.183,0,0,0-4.734.792,9.72,9.72,0,0,0-3.456,2.178,8.931,8.931,0,0,0-2.07,3.2A11,11,0,0,0,186.084-9.432Zm18.072,0a8.6,8.6,0,0,1-.4,2.592,6.547,6.547,0,0,1-1.242,2.268,5.87,5.87,0,0,1-2.232,1.6,8.225,8.225,0,0,1-3.258.594,8.225,8.225,0,0,1-3.258-.594,5.87,5.87,0,0,1-2.232-1.6A6.547,6.547,0,0,1,190.3-6.84a8.6,8.6,0,0,1-.4-2.592,8.6,8.6,0,0,1,.4-2.592,6.4,6.4,0,0,1,1.26-2.268,6.062,6.062,0,0,1,2.232-1.6,8.093,8.093,0,0,1,3.24-.594,8.225,8.225,0,0,1,3.258.594,5.87,5.87,0,0,1,2.232,1.6,6.547,6.547,0,0,1,1.242,2.268A8.6,8.6,0,0,1,204.156-9.432ZM211.536,0h3.6V-10.872a5.055,5.055,0,0,1,1.8-4.14,6.7,6.7,0,0,1,4.392-1.476,6.593,6.593,0,0,1,4.212,1.116,3.939,3.939,0,0,1,1.368,3.24V0h3.6V-12.852a5.9,5.9,0,0,0-2.16-5.022,9.3,9.3,0,0,0-5.76-1.638,10.767,10.767,0,0,0-4.23.828,6.862,6.862,0,0,0-3.15,2.664h-.072v-2.844h-3.6Zm43.632-3.96-6.48-14.9h-4.14L253.26.288l-.828,1.728a12.672,12.672,0,0,1-.81,1.53,3.053,3.053,0,0,1-.738.81,2.56,2.56,0,0,1-.954.414,6.63,6.63,0,0,1-1.422.126q-.54,0-1.368-.072-.432-.036-.72-.072V7.776h.108q1.8.144,2.628.144a11.634,11.634,0,0,0,2.232-.18,4.581,4.581,0,0,0,1.638-.666,5.023,5.023,0,0,0,1.368-1.422,17.763,17.763,0,0,0,1.314-2.412l9.864-22.1H261.54ZM266.76-9.432a11,11,0,0,0,.684,3.906,8.931,8.931,0,0,0,2.07,3.2A9.72,9.72,0,0,0,272.97-.144,13.183,13.183,0,0,0,277.7.648a13.147,13.147,0,0,0,4.752-.792,9.749,9.749,0,0,0,3.438-2.178,8.931,8.931,0,0,0,2.07-3.2,11,11,0,0,0,.684-3.906,11,11,0,0,0-.684-3.906,8.931,8.931,0,0,0-2.07-3.2,9.749,9.749,0,0,0-3.438-2.178,13.147,13.147,0,0,0-4.752-.792,13.183,13.183,0,0,0-4.734.792,9.72,9.72,0,0,0-3.456,2.178,8.931,8.931,0,0,0-2.07,3.2A11,11,0,0,0,266.76-9.432Zm18.072,0a8.594,8.594,0,0,1-.4,2.592,6.547,6.547,0,0,1-1.242,2.268,5.87,5.87,0,0,1-2.232,1.6,8.225,8.225,0,0,1-3.258.594,8.225,8.225,0,0,1-3.258-.594,5.87,5.87,0,0,1-2.232-1.6,6.547,6.547,0,0,1-1.242-2.268,8.594,8.594,0,0,1-.4-2.592,8.594,8.594,0,0,1,.4-2.592,6.4,6.4,0,0,1,1.26-2.268,6.062,6.062,0,0,1,2.232-1.6,8.093,8.093,0,0,1,3.24-.594,8.225,8.225,0,0,1,3.258.594,5.87,5.87,0,0,1,2.232,1.6,6.547,6.547,0,0,1,1.242,2.268A8.594,8.594,0,0,1,284.832-9.432Zm26.352-9.432h-3.6V-7.992a5.055,5.055,0,0,1-1.8,4.14,6.7,6.7,0,0,1-4.392,1.476,6.593,6.593,0,0,1-4.212-1.116,3.939,3.939,0,0,1-1.368-3.24V-18.864h-3.6V-6.012a5.9,5.9,0,0,0,2.16,5.022,9.3,9.3,0,0,0,5.76,1.638,10.767,10.767,0,0,0,4.23-.828,6.862,6.862,0,0,0,3.15-2.664h.072V0h3.6ZM315.576,0h3.6V-9.576a6.131,6.131,0,0,1,1.638-4.59,6.035,6.035,0,0,1,4.41-1.6,8.185,8.185,0,0,1,1.26.09q.576.09,1.3.27V-19.3a4.929,4.929,0,0,0-.918-.18q-.414-.036-1.134-.036a6.92,6.92,0,0,0-3.582.99,8.318,8.318,0,0,0-2.9,3.114h-.072v-3.456h-3.6Zm47.592-4.464H363.1l-4.788-14.4h-3.96l-4.68,14.4H349.6l-5.22-14.4h-4L347.688,0H351.5l4.716-14.4h.072L361.008,0h3.924l7.452-18.864h-3.816ZM374.9,0h3.6V-9.576a6.131,6.131,0,0,1,1.638-4.59,6.035,6.035,0,0,1,4.41-1.6,8.185,8.185,0,0,1,1.26.09q.576.09,1.3.27V-19.3a4.929,4.929,0,0,0-.918-.18q-.414-.036-1.134-.036a6.92,6.92,0,0,0-3.582.99,8.318,8.318,0,0,0-2.9,3.114H378.5v-3.456h-3.6Zm14.652,0h3.6V-18.864h-3.6Zm0-21.96h3.6v-3.96h-3.6Zm6.912,16.02a6.624,6.624,0,0,0,1.026,3.258,6.1,6.1,0,0,0,2.25,2.034A10.215,10.215,0,0,0,402.714.36a19.218,19.218,0,0,0,3.4.288,12.758,12.758,0,0,0,6.966-1.62,5.371,5.371,0,0,0,2.5-4.824,4.012,4.012,0,0,0-1.548-3.294A10.377,10.377,0,0,0,409-10.8l-5.112-.684a5.221,5.221,0,0,1-2.484-.792,1.9,1.9,0,0,1-.648-1.548,2.216,2.216,0,0,1,.432-1.368,2.888,2.888,0,0,1,1.152-.9,6.414,6.414,0,0,1,1.584-.468,10.938,10.938,0,0,1,1.8-.144,7.292,7.292,0,0,1,4.122.99,3.157,3.157,0,0,1,1.53,2.538h3.6a6.2,6.2,0,0,0-2.52-4.626q-2.268-1.71-6.7-1.71a10.787,10.787,0,0,0-6.3,1.62,5.163,5.163,0,0,0-2.3,4.464,4.344,4.344,0,0,0,1.476,3.4,6.646,6.646,0,0,0,3.636,1.6l5.94.792a6.41,6.41,0,0,1,2.808.864,1.957,1.957,0,0,1,.756,1.656,2.288,2.288,0,0,1-.27,1.062,2.646,2.646,0,0,1-.918.954,5.312,5.312,0,0,1-1.782.684,13.1,13.1,0,0,1-2.79.252,10.019,10.019,0,0,1-2.79-.342,5.239,5.239,0,0,1-1.854-.9,3.519,3.519,0,0,1-.99-1.206,3.087,3.087,0,0,1-.306-1.332ZM420.48-18.864h-3.888v2.808h3.888v12.24a4.377,4.377,0,0,0,1.206,3.294,5.234,5.234,0,0,0,3.762,1.17A24.78,24.78,0,0,0,429.48.4V-2.628A14.712,14.712,0,0,1,427-2.376a3.984,3.984,0,0,1-2.178-.486,1.737,1.737,0,0,1-.738-1.566V-16.056h5.4v-2.808h-5.4v-5.8h-3.6Z" transform="translate(969 12565)"/><path d="M9.792-10.4,14.256-21.24,18.648-10.4ZM-.324,0H5.508L8.172-6.372h12.1L22.968,0H28.98L17.532-25.7H11.124ZM29.7-5.976a5.74,5.74,0,0,0,1.116,3.4A6.853,6.853,0,0,0,33.444-.5,12.226,12.226,0,0,0,36.81.468,25.55,25.55,0,0,0,40.392.72,23.945,23.945,0,0,0,44.6.378a10.981,10.981,0,0,0,3.33-1.116,5.859,5.859,0,0,0,2.214-2.034A5.567,5.567,0,0,0,50.94-5.8a4.523,4.523,0,0,0-.7-2.61A4.833,4.833,0,0,0,48.2-10.044a13.255,13.255,0,0,0-2.97-.936q-1.638-.324-4.662-.756-1.836-.252-2.88-.468a7.559,7.559,0,0,1-1.548-.45,1.267,1.267,0,0,1-.666-.594,2.408,2.408,0,0,1-.162-.972q0-.828,1.17-1.512a6.227,6.227,0,0,1,3.15-.684,12.521,12.521,0,0,1,1.62.108,6.748,6.748,0,0,1,1.638.432,3.793,3.793,0,0,1,1.4.972,3.013,3.013,0,0,1,.738,1.656H50.22a5.739,5.739,0,0,0-1.242-3.51,6.888,6.888,0,0,0-2.754-2,12.939,12.939,0,0,0-3.2-.846,25.233,25.233,0,0,0-3.132-.2,20.941,20.941,0,0,0-3.06.234,12.367,12.367,0,0,0-3.06.864,6.029,6.029,0,0,0-2.448,1.89,5.033,5.033,0,0,0-.972,3.168,5.427,5.427,0,0,0,.558,2.61,3.994,3.994,0,0,0,1.656,1.62,9.758,9.758,0,0,0,2.646.918q1.548.324,4.14.684,2.088.288,3.294.54a9.673,9.673,0,0,1,1.818.522,1.818,1.818,0,0,1,.846.648,1.86,1.86,0,0,1,.234.99q0,1.26-1.53,1.854a10.1,10.1,0,0,1-3.654.594,11.351,11.351,0,0,1-1.674-.126,6.375,6.375,0,0,1-1.656-.486A3.583,3.583,0,0,1,35.676-4.3,2.734,2.734,0,0,1,35.1-5.976Zm23.328,0a5.74,5.74,0,0,0,1.116,3.4A6.853,6.853,0,0,0,56.772-.5a12.226,12.226,0,0,0,3.366.972A25.55,25.55,0,0,0,63.72.72,23.945,23.945,0,0,0,67.932.378a10.982,10.982,0,0,0,3.33-1.116,5.859,5.859,0,0,0,2.214-2.034A5.567,5.567,0,0,0,74.268-5.8a4.523,4.523,0,0,0-.7-2.61,4.833,4.833,0,0,0-2.034-1.638,13.255,13.255,0,0,0-2.97-.936q-1.638-.324-4.662-.756-1.836-.252-2.88-.468a7.559,7.559,0,0,1-1.548-.45,1.267,1.267,0,0,1-.666-.594,2.408,2.408,0,0,1-.162-.972q0-.828,1.17-1.512a6.227,6.227,0,0,1,3.15-.684,12.521,12.521,0,0,1,1.62.108,6.748,6.748,0,0,1,1.638.432,3.794,3.794,0,0,1,1.4.972,3.013,3.013,0,0,1,.738,1.656h5.184a5.739,5.739,0,0,0-1.242-3.51,6.888,6.888,0,0,0-2.754-2,12.939,12.939,0,0,0-3.2-.846,25.233,25.233,0,0,0-3.132-.2,20.942,20.942,0,0,0-3.06.234,12.367,12.367,0,0,0-3.06.864,6.029,6.029,0,0,0-2.448,1.89,5.033,5.033,0,0,0-.972,3.168,5.427,5.427,0,0,0,.558,2.61,3.994,3.994,0,0,0,1.656,1.62,9.758,9.758,0,0,0,2.646.918q1.548.324,4.14.684,2.088.288,3.294.54a9.673,9.673,0,0,1,1.818.522,1.818,1.818,0,0,1,.846.648,1.86,1.86,0,0,1,.234.99q0,1.26-1.53,1.854a10.1,10.1,0,0,1-3.654.594A11.351,11.351,0,0,1,62.01-2.79a6.375,6.375,0,0,1-1.656-.486A3.583,3.583,0,0,1,59-4.3a2.734,2.734,0,0,1-.576-1.674ZM77.472,0H82.44V-19.08H77.472Zm0-22.1H82.44v-4.032H77.472ZM85.644-5.976a5.74,5.74,0,0,0,1.116,3.4A6.853,6.853,0,0,0,89.388-.5a12.226,12.226,0,0,0,3.366.972A25.55,25.55,0,0,0,96.336.72a23.944,23.944,0,0,0,4.212-.342,10.981,10.981,0,0,0,3.33-1.116,5.859,5.859,0,0,0,2.214-2.034,5.567,5.567,0,0,0,.792-3.024,4.523,4.523,0,0,0-.7-2.61,4.833,4.833,0,0,0-2.034-1.638,13.255,13.255,0,0,0-2.97-.936q-1.638-.324-4.662-.756-1.836-.252-2.88-.468a7.559,7.559,0,0,1-1.548-.45,1.267,1.267,0,0,1-.666-.594,2.408,2.408,0,0,1-.162-.972q0-.828,1.17-1.512a6.227,6.227,0,0,1,3.15-.684,12.52,12.52,0,0,1,1.62.108,6.748,6.748,0,0,1,1.638.432,3.794,3.794,0,0,1,1.4.972,3.013,3.013,0,0,1,.738,1.656h5.184a5.739,5.739,0,0,0-1.242-3.51,6.888,6.888,0,0,0-2.754-2,12.939,12.939,0,0,0-3.2-.846,25.233,25.233,0,0,0-3.132-.2,20.941,20.941,0,0,0-3.06.234,12.367,12.367,0,0,0-3.06.864,6.029,6.029,0,0,0-2.448,1.89,5.033,5.033,0,0,0-.972,3.168,5.427,5.427,0,0,0,.558,2.61,3.994,3.994,0,0,0,1.656,1.62,9.758,9.758,0,0,0,2.646.918q1.548.324,4.14.684,2.088.288,3.294.54a9.673,9.673,0,0,1,1.818.522,1.818,1.818,0,0,1,.846.648,1.86,1.86,0,0,1,.234.99q0,1.26-1.53,1.854a10.1,10.1,0,0,1-3.654.594,11.352,11.352,0,0,1-1.674-.126,6.375,6.375,0,0,1-1.656-.486A3.583,3.583,0,0,1,91.62-4.3a2.734,2.734,0,0,1-.576-1.674Zm25.848.648a13.336,13.336,0,0,0,.2,2.538,3.745,3.745,0,0,0,.828,1.728A3.9,3.9,0,0,0,114.462.054a13.3,13.3,0,0,0,3.546.378q1.08,0,1.89-.072t1.926-.216v-3.6h-.108q-2.16.072-3.456.072-1.188,0-1.494-.756a7.809,7.809,0,0,1-.306-2.628V-15.48h5.184v-3.6H116.46v-5.9h-4.968v5.9h-3.96v3.6h3.96Zm33.588-8.064a9.37,9.37,0,0,0-.252-2.268,4.191,4.191,0,0,0-1.242-1.962,7.445,7.445,0,0,0-3.114-1.566,21.081,21.081,0,0,0-5.652-.612,14.057,14.057,0,0,0-7.038,1.476,6.5,6.5,0,0,0-3.042,5.076h4.86q.288-3.168,5.22-3.168a10.4,10.4,0,0,1,3.942.612,2.153,2.153,0,0,1,1.458,2.124,1.514,1.514,0,0,1-.252.918,1.952,1.952,0,0,1-1.008.576,14.655,14.655,0,0,1-2.178.432q-1.422.2-4.446.486H132.3q-1.764.144-3.042.378a10.14,10.14,0,0,0-2.556.846A5.4,5.4,0,0,0,124.6-8.262a5.085,5.085,0,0,0-.828,3.006A5.255,5.255,0,0,0,125.8-.864,9.156,9.156,0,0,0,131.544.72a21.872,21.872,0,0,0,3.492-.252,13.042,13.042,0,0,0,2.61-.666,10.657,10.657,0,0,0,1.728-.828,6.294,6.294,0,0,0,1.134-.882,3.818,3.818,0,0,0,.216.792,2.346,2.346,0,0,0,.54.756A2.91,2.91,0,0,0,142.4.288a5.813,5.813,0,0,0,1.854.252,13.77,13.77,0,0,0,1.53-.072q.63-.072,1.458-.252l.54-.108V-3.384q-.252.036-.756.072t-.864.036a1.421,1.421,0,0,1-.756-.2q-.324-.2-.324-.882Zm-4.968,5.724a4.41,4.41,0,0,1-.7,2.52,4.862,4.862,0,0,1-1.8,1.62,8.788,8.788,0,0,1-2.322.828,11.609,11.609,0,0,1-2.34.252,7.735,7.735,0,0,1-1.4-.126,4.264,4.264,0,0,1-1.278-.45,2.5,2.5,0,0,1-.954-.918,2.84,2.84,0,0,1-.36-1.494,2.146,2.146,0,0,1,.972-1.908,9.236,9.236,0,0,1,3.672-.972q3.06-.36,4.284-.558a9.5,9.5,0,0,0,2.232-.63ZM149.94,0h4.968V-10.26a5.567,5.567,0,0,1,.54-2.52,4.714,4.714,0,0,1,1.422-1.728,6.191,6.191,0,0,1,1.908-.954,7.208,7.208,0,0,1,2.07-.306,6.664,6.664,0,0,1,2.43.378,3.436,3.436,0,0,1,1.458,1.008,3.7,3.7,0,0,1,.7,1.386,6.375,6.375,0,0,1,.2,1.62V0H170.6V-12.96a6.758,6.758,0,0,0-.666-3.15,5.53,5.53,0,0,0-1.8-2.052,7.4,7.4,0,0,0-2.556-1.1,13.843,13.843,0,0,0-3.078-.324,10.1,10.1,0,0,0-4.356.9A8.754,8.754,0,0,0,154.98-16.2h-.072v-2.88H149.94Zm26.244-5.328a13.335,13.335,0,0,0,.2,2.538,3.745,3.745,0,0,0,.828,1.728A3.9,3.9,0,0,0,179.154.054,13.3,13.3,0,0,0,182.7.432q1.08,0,1.89-.072t1.926-.216v-3.6h-.108q-2.16.072-3.456.072-1.188,0-1.494-.756a7.809,7.809,0,0,1-.306-2.628V-15.48h5.184v-3.6h-5.184v-5.9h-4.968v5.9h-3.96v3.6h3.96ZM206.316-9.54a7.8,7.8,0,0,1,.378-2.448,5.819,5.819,0,0,1,1.17-2.052,5.465,5.465,0,0,1,2.052-1.422,7.887,7.887,0,0,1,3.024-.522,7.887,7.887,0,0,1,3.024.522,5.465,5.465,0,0,1,2.052,1.422,5.819,5.819,0,0,1,1.17,2.052,7.8,7.8,0,0,1,.378,2.448,7.8,7.8,0,0,1-.378,2.448,5.819,5.819,0,0,1-1.17,2.052,5.465,5.465,0,0,1-2.052,1.422,7.887,7.887,0,0,1-3.024.522,7.887,7.887,0,0,1-3.024-.522,5.465,5.465,0,0,1-2.052-1.422,5.819,5.819,0,0,1-1.17-2.052A7.8,7.8,0,0,1,206.316-9.54Zm-5.184,0a11.313,11.313,0,0,0,.666,3.888,8.979,8.979,0,0,0,2.088,3.276,9.809,9.809,0,0,0,3.708,2.268A15.685,15.685,0,0,0,212.94.72,15.648,15.648,0,0,0,218.3-.108a9.827,9.827,0,0,0,3.69-2.268,8.979,8.979,0,0,0,2.088-3.276,11.313,11.313,0,0,0,.666-3.888,11.313,11.313,0,0,0-.666-3.888,8.979,8.979,0,0,0-2.088-3.276,9.827,9.827,0,0,0-3.69-2.268,15.648,15.648,0,0,0-5.364-.828,15.685,15.685,0,0,0-5.346.828,9.809,9.809,0,0,0-3.708,2.268,8.979,8.979,0,0,0-2.088,3.276A11.313,11.313,0,0,0,201.132-9.54ZM227.952,0h4.968V-10.26a5.567,5.567,0,0,1,.54-2.52,4.714,4.714,0,0,1,1.422-1.728,6.191,6.191,0,0,1,1.908-.954,7.208,7.208,0,0,1,2.07-.306,6.664,6.664,0,0,1,2.43.378,3.436,3.436,0,0,1,1.458,1.008,3.7,3.7,0,0,1,.7,1.386,6.375,6.375,0,0,1,.2,1.62V0h4.968V-12.96a6.758,6.758,0,0,0-.666-3.15,5.53,5.53,0,0,0-1.8-2.052,7.4,7.4,0,0,0-2.556-1.1,13.843,13.843,0,0,0-3.078-.324,10.1,10.1,0,0,0-4.356.9,8.754,8.754,0,0,0-3.168,2.484h-.072v-2.88h-4.968Zm43.884-.324-1.116,2.3a2.2,2.2,0,0,1-1.1,1.17,4.483,4.483,0,0,1-1.782.306q-.828,0-1.494-.018t-.99-.054V7.2q.792.036,1.6.054t1.494.018a17.932,17.932,0,0,0,2.664-.162,5.353,5.353,0,0,0,1.764-.558,4.162,4.162,0,0,0,1.3-1.152,10.717,10.717,0,0,0,1.152-2.016l10.4-22.464H280.44L274.464-5.436l-6.12-13.644h-5.4ZM291.672-9.54a7.8,7.8,0,0,1,.378-2.448,5.819,5.819,0,0,1,1.17-2.052,5.465,5.465,0,0,1,2.052-1.422,7.887,7.887,0,0,1,3.024-.522,7.887,7.887,0,0,1,3.024.522,5.465,5.465,0,0,1,2.052,1.422,5.819,5.819,0,0,1,1.17,2.052,7.8,7.8,0,0,1,.378,2.448,7.8,7.8,0,0,1-.378,2.448,5.819,5.819,0,0,1-1.17,2.052,5.465,5.465,0,0,1-2.052,1.422A7.887,7.887,0,0,1,298.3-3.1a7.887,7.887,0,0,1-3.024-.522A5.465,5.465,0,0,1,293.22-5.04a5.819,5.819,0,0,1-1.17-2.052A7.8,7.8,0,0,1,291.672-9.54Zm-5.184,0a11.313,11.313,0,0,0,.666,3.888,8.979,8.979,0,0,0,2.088,3.276A9.81,9.81,0,0,0,292.95-.108,15.685,15.685,0,0,0,298.3.72a15.648,15.648,0,0,0,5.364-.828,9.827,9.827,0,0,0,3.69-2.268,8.979,8.979,0,0,0,2.088-3.276A11.314,11.314,0,0,0,310.1-9.54a11.313,11.313,0,0,0-.666-3.888A8.979,8.979,0,0,0,307.35-16.7a9.827,9.827,0,0,0-3.69-2.268A15.648,15.648,0,0,0,298.3-19.8a15.685,15.685,0,0,0-5.346.828,9.81,9.81,0,0,0-3.708,2.268,8.979,8.979,0,0,0-2.088,3.276A11.313,11.313,0,0,0,286.488-9.54Zm26.82,3.2a7.816,7.816,0,0,0,.666,3.4,5.489,5.489,0,0,0,1.8,2.178A7.467,7.467,0,0,0,318.33.378a13.144,13.144,0,0,0,3.078.342,10.1,10.1,0,0,0,4.356-.9,8.754,8.754,0,0,0,3.168-2.484H329V0h4.968V-19.08H329V-8.6a5.308,5.308,0,0,1-.558,2.5,5.009,5.009,0,0,1-1.458,1.728,6.294,6.294,0,0,1-1.89.972,6.4,6.4,0,0,1-1.89.306,7.056,7.056,0,0,1-2.52-.378,3.349,3.349,0,0,1-1.494-1.062,3.986,3.986,0,0,1-.72-1.566,9.737,9.737,0,0,1-.2-2.106V-19.08h-4.968ZM338,0h4.968V-9.216a5.986,5.986,0,0,1,.558-2.7,4.972,4.972,0,0,1,1.476-1.8,5.886,5.886,0,0,1,1.962-.972,7.821,7.821,0,0,1,2.088-.288,12.506,12.506,0,0,1,1.548.09,9.087,9.087,0,0,1,1.62.378v-4.9a12.119,12.119,0,0,0-1.98-.18,7.517,7.517,0,0,0-4.32,1.152,10.079,10.079,0,0,0-2.88,3.06h-.072V-19.08H338Zm34.7,0h5.616l4.644-13.248h.072L387.684,0H393.3l7.236-19.08h-5.4l-4.9,13.968h-.072L385.6-19.08h-5.184L375.84-5.112h-.072l-4.9-13.968h-5.4ZM402.7,0h4.968V-9.216a5.986,5.986,0,0,1,.558-2.7,4.972,4.972,0,0,1,1.476-1.8,5.886,5.886,0,0,1,1.962-.972,7.821,7.821,0,0,1,2.088-.288,12.506,12.506,0,0,1,1.548.09,9.087,9.087,0,0,1,1.62.378v-4.9a12.119,12.119,0,0,0-1.98-.18,7.517,7.517,0,0,0-4.32,1.152,10.079,10.079,0,0,0-2.88,3.06h-.072V-19.08H402.7Zm16.812,0h4.968V-19.08h-4.968Zm0-22.1h4.968v-4.032h-4.968ZM427.68-5.976a5.74,5.74,0,0,0,1.116,3.4A6.853,6.853,0,0,0,431.424-.5a12.226,12.226,0,0,0,3.366.972,25.551,25.551,0,0,0,3.582.252,23.945,23.945,0,0,0,4.212-.342,10.982,10.982,0,0,0,3.33-1.116,5.859,5.859,0,0,0,2.214-2.034A5.567,5.567,0,0,0,448.92-5.8a4.523,4.523,0,0,0-.7-2.61,4.833,4.833,0,0,0-2.034-1.638,13.255,13.255,0,0,0-2.97-.936q-1.638-.324-4.662-.756-1.836-.252-2.88-.468a7.559,7.559,0,0,1-1.548-.45,1.267,1.267,0,0,1-.666-.594,2.408,2.408,0,0,1-.162-.972q0-.828,1.17-1.512a6.228,6.228,0,0,1,3.15-.684,12.521,12.521,0,0,1,1.62.108,6.748,6.748,0,0,1,1.638.432,3.793,3.793,0,0,1,1.4.972,3.013,3.013,0,0,1,.738,1.656H448.2a5.739,5.739,0,0,0-1.242-3.51,6.887,6.887,0,0,0-2.754-2A12.939,12.939,0,0,0,441-19.6a25.233,25.233,0,0,0-3.132-.2,20.942,20.942,0,0,0-3.06.234,12.367,12.367,0,0,0-3.06.864,6.029,6.029,0,0,0-2.448,1.89,5.033,5.033,0,0,0-.972,3.168,5.427,5.427,0,0,0,.558,2.61,3.994,3.994,0,0,0,1.656,1.62,9.757,9.757,0,0,0,2.646.918q1.548.324,4.14.684,2.088.288,3.294.54a9.673,9.673,0,0,1,1.818.522,1.818,1.818,0,0,1,.846.648,1.86,1.86,0,0,1,.234.99q0,1.26-1.53,1.854a10.1,10.1,0,0,1-3.654.594,11.352,11.352,0,0,1-1.674-.126,6.375,6.375,0,0,1-1.656-.486,3.583,3.583,0,0,1-1.35-1.026,2.734,2.734,0,0,1-.576-1.674Zm25.848.648a13.336,13.336,0,0,0,.2,2.538,3.744,3.744,0,0,0,.828,1.728A3.9,3.9,0,0,0,456.5.054a13.3,13.3,0,0,0,3.546.378q1.08,0,1.89-.072T463.86.144v-3.6h-.108q-2.16.072-3.456.072-1.188,0-1.494-.756a7.809,7.809,0,0,1-.306-2.628V-15.48h5.184v-3.6H458.5v-5.9h-4.968v5.9h-3.96v3.6h3.96Z" transform="translate(969 12627)"/><path d="M-1.008,0h9.18L9.72-4.176H20.952L22.5,0h9.18L20.628-25.7H10.152ZM18.936-9.5h-7.2l3.564-9.72h.072Zm12.708,3.42A5.453,5.453,0,0,0,32.9-2.61,7.613,7.613,0,0,0,35.982-.486,16.829,16.829,0,0,0,40.032.522a36.276,36.276,0,0,0,4.5.27q6.156,0,9.324-1.674a5.431,5.431,0,0,0,3.168-5.094,4.861,4.861,0,0,0-1.89-4.194,12.471,12.471,0,0,0-5.958-1.818l-6.588-.72a4.524,4.524,0,0,1-1.908-.5,1.033,1.033,0,0,1-.54-.864,1.458,1.458,0,0,1,.882-1.4,6.145,6.145,0,0,1,2.61-.432,7.09,7.09,0,0,1,2.736.432,1.879,1.879,0,0,1,1.368,1.656H56.3A5.419,5.419,0,0,0,55.026-17.1a7.419,7.419,0,0,0-2.9-2,15.313,15.313,0,0,0-3.762-.954,33.831,33.831,0,0,0-4.23-.252,30.753,30.753,0,0,0-5,.36,12.479,12.479,0,0,0-3.69,1.152A5.714,5.714,0,0,0,33.1-16.65a6.294,6.294,0,0,0-.81,3.294A4.42,4.42,0,0,0,33.948-9.63a10.507,10.507,0,0,0,5.076,1.71l6.8.828a6.51,6.51,0,0,1,2.052.486,1.1,1.1,0,0,1,.576,1.062,1.362,1.362,0,0,1-.99,1.35,7.086,7.086,0,0,1-2.5.378,7.006,7.006,0,0,1-3.384-.612A2.081,2.081,0,0,1,40.5-6.084Zm27.324,0a5.453,5.453,0,0,0,1.26,3.474A7.613,7.613,0,0,0,63.306-.486,16.829,16.829,0,0,0,67.356.522a36.276,36.276,0,0,0,4.5.27q6.156,0,9.324-1.674a5.431,5.431,0,0,0,3.168-5.094,4.861,4.861,0,0,0-1.89-4.194A12.471,12.471,0,0,0,76.5-11.988l-6.588-.72a4.524,4.524,0,0,1-1.908-.5,1.033,1.033,0,0,1-.54-.864,1.458,1.458,0,0,1,.882-1.4,6.145,6.145,0,0,1,2.61-.432,7.09,7.09,0,0,1,2.736.432,1.879,1.879,0,0,1,1.368,1.656h8.568A5.419,5.419,0,0,0,82.35-17.1a7.419,7.419,0,0,0-2.9-2,15.313,15.313,0,0,0-3.762-.954,33.831,33.831,0,0,0-4.23-.252,30.753,30.753,0,0,0-5,.36,12.479,12.479,0,0,0-3.69,1.152,5.714,5.714,0,0,0-2.34,2.142,6.294,6.294,0,0,0-.81,3.294A4.42,4.42,0,0,0,61.272-9.63a10.507,10.507,0,0,0,5.076,1.71l6.8.828a6.51,6.51,0,0,1,2.052.486,1.1,1.1,0,0,1,.576,1.062,1.362,1.362,0,0,1-.99,1.35,7.086,7.086,0,0,1-2.5.378A7.006,7.006,0,0,1,68.9-4.428a2.081,2.081,0,0,1-1.08-1.656ZM87.48,0h7.632V-19.512H87.48Zm0-21.744h7.632v-4.608H87.48ZM98.244-6.084A5.453,5.453,0,0,0,99.5-2.61a7.613,7.613,0,0,0,3.078,2.124,16.829,16.829,0,0,0,4.05,1.008,36.276,36.276,0,0,0,4.5.27q6.156,0,9.324-1.674a5.431,5.431,0,0,0,3.168-5.094,4.861,4.861,0,0,0-1.89-4.194,12.471,12.471,0,0,0-5.958-1.818l-6.588-.72a4.524,4.524,0,0,1-1.908-.5,1.033,1.033,0,0,1-.54-.864,1.458,1.458,0,0,1,.882-1.4,6.145,6.145,0,0,1,2.61-.432,7.09,7.09,0,0,1,2.736.432,1.879,1.879,0,0,1,1.368,1.656H122.9a5.419,5.419,0,0,0-1.278-3.276,7.419,7.419,0,0,0-2.9-2,15.313,15.313,0,0,0-3.762-.954,33.831,33.831,0,0,0-4.23-.252,30.753,30.753,0,0,0-5,.36,12.479,12.479,0,0,0-3.69,1.152A5.714,5.714,0,0,0,99.7-16.65a6.294,6.294,0,0,0-.81,3.294,4.42,4.42,0,0,0,1.656,3.726,10.506,10.506,0,0,0,5.076,1.71l6.8.828a6.51,6.51,0,0,1,2.052.486,1.1,1.1,0,0,1,.576,1.062,1.362,1.362,0,0,1-.99,1.35,7.086,7.086,0,0,1-2.5.378,7.006,7.006,0,0,1-3.384-.612,2.081,2.081,0,0,1-1.08-1.656ZM124.6-14.472h4V-5q0,3.1,1.6,4.266t5.418,1.17a42.387,42.387,0,0,0,5.8-.36V-4.68h-.54q-1.4.072-2.16.072a3.691,3.691,0,0,1-2.034-.36q-.45-.36-.45-1.656v-7.848h5.04v-5.04h-5.04V-25.7h-7.632v6.192h-4Zm27.936,1.08a2.7,2.7,0,0,1,1.368-1.854,6.723,6.723,0,0,1,3.168-.594,9.521,9.521,0,0,1,3.654.522,1.679,1.679,0,0,1,1.17,1.566,1.335,1.335,0,0,1-.45,1.134,3.875,3.875,0,0,1-1.854.45l-7.6.5a12.78,12.78,0,0,0-6.354,1.728,5.256,5.256,0,0,0-2.07,4.644q0,6.084,9.54,6.084a22.514,22.514,0,0,0,5.418-.558A8.272,8.272,0,0,0,162.288-1.8a5.533,5.533,0,0,0,.4,1.8h7.632a5.7,5.7,0,0,1-.63-1.566,9.509,9.509,0,0,1-.162-1.962v-9.864a5.615,5.615,0,0,0-.918-3.294,5.952,5.952,0,0,0-2.556-2.034,14.088,14.088,0,0,0-3.852-1.008,39.911,39.911,0,0,0-5.094-.288,36.73,36.73,0,0,0-4.554.252,13.921,13.921,0,0,0-3.636.936,6.679,6.679,0,0,0-2.7,2.016,6.642,6.642,0,0,0-1.314,3.42Zm9.576,5.472a3.588,3.588,0,0,1-1.782,3.168A9.31,9.31,0,0,1,155.268-3.6a4.379,4.379,0,0,1-2.484-.63,1.993,1.993,0,0,1-.936-1.746q0-1.728,2.2-1.98l5.148-.612a17.837,17.837,0,0,0,2.916-.54ZM173.916,0h7.632V-9.576a4.468,4.468,0,0,1,1.314-3.492,4.93,4.93,0,0,1,3.438-1.188q3.96,0,3.96,3.708V0h7.632V-12.852a6.444,6.444,0,0,0-2.268-5.346,9.329,9.329,0,0,0-6.012-1.818,12.327,12.327,0,0,0-4.878.9A8.456,8.456,0,0,0,181.4-16.7h-.072v-2.808h-7.416Zm25.992-14.472h4V-5q0,3.1,1.6,4.266t5.418,1.17a42.387,42.387,0,0,0,5.8-.36V-4.68h-.54q-1.4.072-2.16.072a3.691,3.691,0,0,1-2.034-.36q-.45-.36-.45-1.656v-7.848h5.04v-5.04h-5.04V-25.7H203.9v6.192h-4Zm46.62-.792a5.767,5.767,0,0,1,4.14,1.4,5.4,5.4,0,0,1,1.476,4.1,5.4,5.4,0,0,1-1.476,4.1,5.767,5.767,0,0,1-4.14,1.4,5.767,5.767,0,0,1-4.14-1.4,5.4,5.4,0,0,1-1.476-4.1,5.4,5.4,0,0,1,1.476-4.1A5.767,5.767,0,0,1,246.528-15.264Zm-13.68,5.508a9.3,9.3,0,0,0,3.51,7.848q3.51,2.7,10.17,2.7t10.17-2.7a9.3,9.3,0,0,0,3.51-7.848A9.3,9.3,0,0,0,256.7-17.6q-3.51-2.7-10.17-2.7t-10.17,2.7A9.3,9.3,0,0,0,232.848-9.756ZM263.2,0h7.632V-9.576a4.468,4.468,0,0,1,1.314-3.492,4.93,4.93,0,0,1,3.438-1.188q3.96,0,3.96,3.708V0h7.632V-12.852A6.444,6.444,0,0,0,284.9-18.2a9.329,9.329,0,0,0-6.012-1.818,12.327,12.327,0,0,0-4.878.9,8.456,8.456,0,0,0-3.33,2.412h-.072v-2.808H263.2ZM305.46,6.84q2.952.216,5.364.216a12.538,12.538,0,0,0,2.934-.288A5.372,5.372,0,0,0,315.7,5.9,5.4,5.4,0,0,0,317,4.536a17.322,17.322,0,0,0,1.134-2.088L328.5-19.512h-8.064L315.684-7.92l-4.932-11.592h-8.28l9.18,18.4L310.788.612a2.461,2.461,0,0,1-1.026,1.044,5.767,5.767,0,0,1-2.466.36H305.46Zm37.008-22.1a5.767,5.767,0,0,1,4.14,1.4,5.4,5.4,0,0,1,1.476,4.1,5.4,5.4,0,0,1-1.476,4.1,5.767,5.767,0,0,1-4.14,1.4,5.767,5.767,0,0,1-4.14-1.4,5.4,5.4,0,0,1-1.476-4.1,5.4,5.4,0,0,1,1.476-4.1A5.767,5.767,0,0,1,342.468-15.264Zm-13.68,5.508a9.3,9.3,0,0,0,3.51,7.848q3.51,2.7,10.17,2.7t10.17-2.7a9.3,9.3,0,0,0,3.51-7.848,9.3,9.3,0,0,0-3.51-7.848q-3.51-2.7-10.17-2.7T332.3-17.6A9.3,9.3,0,0,0,328.788-9.756Zm30.348,2.664a9.827,9.827,0,0,0,.612,3.654,6.1,6.1,0,0,0,1.728,2.466,6.852,6.852,0,0,0,2.61,1.35,12.462,12.462,0,0,0,3.33.414,12.327,12.327,0,0,0,4.878-.9,8.456,8.456,0,0,0,3.33-2.412h.072V0h7.416V-19.512H375.48v9.864a4.468,4.468,0,0,1-1.314,3.492,4.93,4.93,0,0,1-3.438,1.188,3.948,3.948,0,0,1-2.97-1.026,4.864,4.864,0,0,1-.99-3.438v-10.08h-7.632ZM387.288,0h7.632V-7.56a5.629,5.629,0,0,1,1.566-4.248,6.578,6.578,0,0,1,4.734-1.512,15.3,15.3,0,0,1,2.25.18,9.637,9.637,0,0,1,1.962.468V-19.8a13.77,13.77,0,0,0-2.592-.216,9.423,9.423,0,0,0-4.68,1.188,8.494,8.494,0,0,0-3.276,3.168h-.072v-3.852h-7.524Zm39.6,0h9.072l4.1-11.484h.072L444.24,0h9.072l7.056-19.512h-8.28L448.056-6.7h-.072l-4.428-12.816h-6.912L432.216-6.7h-.072l-4.032-12.816h-8.28ZM462.6,0h7.632V-7.56a5.629,5.629,0,0,1,1.566-4.248,6.578,6.578,0,0,1,4.734-1.512,15.3,15.3,0,0,1,2.25.18,9.637,9.637,0,0,1,1.962.468V-19.8a13.77,13.77,0,0,0-2.592-.216,9.423,9.423,0,0,0-4.68,1.188A8.494,8.494,0,0,0,470.2-15.66h-.072v-3.852H462.6Zm20.664,0H490.9V-19.512h-7.632Zm0-21.744H490.9v-4.608h-7.632Zm10.764,15.66a5.453,5.453,0,0,0,1.26,3.474,7.614,7.614,0,0,0,3.078,2.124,16.829,16.829,0,0,0,4.05,1.008,36.275,36.275,0,0,0,4.5.27q6.156,0,9.324-1.674a5.431,5.431,0,0,0,3.168-5.094,4.861,4.861,0,0,0-1.89-4.194,12.471,12.471,0,0,0-5.958-1.818l-6.588-.72a4.524,4.524,0,0,1-1.908-.5,1.033,1.033,0,0,1-.54-.864,1.458,1.458,0,0,1,.882-1.4,6.145,6.145,0,0,1,2.61-.432,7.09,7.09,0,0,1,2.736.432,1.879,1.879,0,0,1,1.368,1.656h8.568A5.419,5.419,0,0,0,517.41-17.1a7.418,7.418,0,0,0-2.9-2,15.314,15.314,0,0,0-3.762-.954,33.831,33.831,0,0,0-4.23-.252,30.753,30.753,0,0,0-5,.36,12.479,12.479,0,0,0-3.69,1.152,5.714,5.714,0,0,0-2.34,2.142,6.294,6.294,0,0,0-.81,3.294,4.42,4.42,0,0,0,1.656,3.726,10.506,10.506,0,0,0,5.076,1.71l6.8.828a6.511,6.511,0,0,1,2.052.486,1.1,1.1,0,0,1,.576,1.062,1.362,1.362,0,0,1-.99,1.35,7.086,7.086,0,0,1-2.5.378,7.006,7.006,0,0,1-3.384-.612,2.081,2.081,0,0,1-1.08-1.656Zm26.352-8.388h4V-5q0,3.1,1.6,4.266T531.4.432a42.388,42.388,0,0,0,5.8-.36V-4.68h-.54q-1.4.072-2.16.072a3.691,3.691,0,0,1-2.034-.36q-.45-.36-.45-1.656v-7.848h5.04v-5.04h-5.04V-25.7h-7.632v6.192h-4Z" transform="translate(969 12689)"/><line class="b" x2="70" transform="translate(969.5 12369.5)"/></g></svg>