<svg xmlns="http://www.w3.org/2000/svg" width="152.379" height="30.657" viewBox="0 0 152.379 30.657"><defs><style>.a{fill:#8d6eff;stroke:#8d6eff;stroke-width:0.3px;}</style></defs><g transform="translate(0.151 0.15)"><g transform="translate(90.96 0)"><path class="a" d="M105.631,43.407a5.241,5.241,0,0,0,.693,1.733,6,6,0,0,0,2.125,2.024,9.346,9.346,0,0,0,2.934,1.052,18.414,18.414,0,0,0,3.4.3,10.874,10.874,0,0,0,5.667-1.3,4.017,4.017,0,0,0,2.145-3.6,3.322,3.322,0,0,0-1.356-2.853,9.521,9.521,0,0,0-4.026-1.436l-6.558-1.093a20.162,20.162,0,0,1-3-.689,10.886,10.886,0,0,1-2.692-1.274,6.513,6.513,0,0,1-2.085-2.227,6.641,6.641,0,0,1-.808-3.379,7.7,7.7,0,0,1,3.056-6.4q3.056-2.386,8.52-2.388a20.383,20.383,0,0,1,4.433.465,12.7,12.7,0,0,1,3.824,1.517,8.277,8.277,0,0,1,2.813,2.813,9.258,9.258,0,0,1,1.234,4.27h-4.289a7.127,7.127,0,0,0-.568-1.922,4.962,4.962,0,0,0-1.336-1.659,7.022,7.022,0,0,0-2.569-1.275,14.727,14.727,0,0,0-4.109-.485,11.065,11.065,0,0,0-2.428.263,7.147,7.147,0,0,0-2.145.85,4.716,4.716,0,0,0-1.557,1.5,3.828,3.828,0,0,0-.587,2.125,3.069,3.069,0,0,0,1.092,2.388,7.451,7.451,0,0,0,3.642,1.417l7.083,1.215h.081q1.415.282,2.691.628a11.627,11.627,0,0,1,2.671,1.133,6.8,6.8,0,0,1,2.327,2.185,6.109,6.109,0,0,1,.931,3.461,8.889,8.889,0,0,1-1.052,4.473A8.214,8.214,0,0,1,122.98,50.2a12.459,12.459,0,0,1-3.986,1.58,21.778,21.778,0,0,1-4.533.465,23.258,23.258,0,0,1-4.959-.507,13.13,13.13,0,0,1-4.21-1.68,8.581,8.581,0,0,1-3-3.177A9.9,9.9,0,0,1,101.184,42H103.7" transform="translate(-101.184 -21.887)"/><path class="a" d="M101.278,36.1a1.6,1.6,0,0,1,1.594-1.594h1.108a1.6,1.6,0,0,1,1.594,1.594v6.6" transform="translate(-101.128 -14.392)"/></g><path class="a" d="M50.169,23.669l17.5,21.665h.081V22.344h2.152l2.139,1.967V51.244H67.068L48.49,28.254h-.081v22.99H44.118v-28.9h3.4" transform="translate(-44.119 -21.616)"/><path class="a" d="M68.69,23.938v16.9a6.651,6.651,0,0,0,2.327,5.585,10.229,10.229,0,0,0,6.455,1.822,10.232,10.232,0,0,0,6.456-1.822,6.656,6.656,0,0,0,2.327-5.585v-18.5h2.216l.3,2.466,1.777.048V40.316q0,11.656-13.074,11.657T64.4,40.316V22.344h2.874" transform="translate(-32.073 -21.616)"/><g transform="translate(62.552 0.728)"><path class="a" d="M100.615,45.224,92.244,32.48h4.3L104.9,45.224Z" transform="translate(-78.087 -16.324)"/><path class="a" d="M98.863,38.98H87.653V51.244H83.362v-28.9h17.889a9.224,9.224,0,0,1,3.6.649,6.379,6.379,0,0,1,2.471,1.76,7.472,7.472,0,0,1,1.376,2.469,8.98,8.98,0,0,1,.445,2.813,8.252,8.252,0,0,1-1.254,4.492C105.838,37.81,102.327,38.98,98.863,38.98Zm.77-3.723a6.93,6.93,0,0,0,2.53-.406,4.1,4.1,0,0,0,1.618-1.071,3.99,3.99,0,0,0,.83-1.457,5.582,5.582,0,0,0,.242-1.64,4.452,4.452,0,0,0-1.294-3.379,5.318,5.318,0,0,0-3.8-1.234h-12.1v9.188Z" transform="translate(-83.362 -22.344)"/></g><path class="a" d="M141.125,24.287V51.244h-4.291v-28.9h2.356" transform="translate(10.95 -21.616)"/><rect class="a" width="4.295" height="9.787" rx="1" transform="translate(23.637 0.729)"/><rect class="a" width="4.295" height="9.787" rx="1" transform="translate(32.324 0.729)"/><rect class="a" width="4.295" height="9.787" rx="1" transform="translate(54.178 0.729)"/><rect class="a" width="4.295" height="9.787" rx="1" transform="translate(147.783 0.729)"/><g transform="translate(118.913 0)"><path class="a" d="M123.168,43.407a5.309,5.309,0,0,0,.693,1.733,6,6,0,0,0,2.125,2.024,9.345,9.345,0,0,0,2.934,1.052,18.413,18.413,0,0,0,3.4.3,10.87,10.87,0,0,0,5.667-1.3,4.017,4.017,0,0,0,2.145-3.6,3.322,3.322,0,0,0-1.356-2.853,9.521,9.521,0,0,0-4.026-1.436l-6.558-1.093a20.162,20.162,0,0,1-3-.689,10.886,10.886,0,0,1-2.692-1.274,6.493,6.493,0,0,1-2.083-2.227,6.625,6.625,0,0,1-.81-3.379,7.7,7.7,0,0,1,3.056-6.4q3.056-2.386,8.52-2.388a20.383,20.383,0,0,1,4.433.465,12.7,12.7,0,0,1,3.824,1.517,8.277,8.277,0,0,1,2.813,2.813,9.259,9.259,0,0,1,1.234,4.27H139.2a7.126,7.126,0,0,0-.567-1.922,4.943,4.943,0,0,0-1.336-1.659,7.022,7.022,0,0,0-2.569-1.275,14.727,14.727,0,0,0-4.109-.485,11.075,11.075,0,0,0-2.428.263,7.163,7.163,0,0,0-2.145.85,4.717,4.717,0,0,0-1.557,1.5,3.828,3.828,0,0,0-.587,2.125,3.069,3.069,0,0,0,1.092,2.388,7.451,7.451,0,0,0,3.642,1.417l7.084,1.215h.081q1.415.282,2.691.628a11.628,11.628,0,0,1,2.672,1.133,6.784,6.784,0,0,1,2.327,2.185,6.108,6.108,0,0,1,.931,3.461,8.889,8.889,0,0,1-1.052,4.473,8.2,8.2,0,0,1-2.853,2.954,12.444,12.444,0,0,1-3.987,1.58,21.777,21.777,0,0,1-4.533.465,23.269,23.269,0,0,1-4.959-.507,13.131,13.131,0,0,1-4.21-1.68,8.581,8.581,0,0,1-2.995-3.177A9.921,9.921,0,0,1,118.721,42h2.512" transform="translate(-118.721 -21.887)"/><path class="a" d="M118.815,36.1a1.6,1.6,0,0,1,1.594-1.594h1.108a1.6,1.6,0,0,1,1.594,1.594v6.6" transform="translate(-118.665 -14.392)"/></g><path class="a" d="M47.716,28.321h-.609a2.99,2.99,0,0,1-2.989-2.989h0a2.99,2.99,0,0,1,2.989-2.989h.609c1.619.124,2.781,1.6,3.384,2.477" transform="translate(-44.119 -21.616)"/></g></svg>