<svg xmlns="http://www.w3.org/2000/svg" width="317.588" height="456.12" viewBox="0 0 317.588 456.12"><defs><style>.a{fill:#8d6eff;font-size:22px;font-family:SDGothicNeoa-cLt, 'Sandoll GothicNeo1 03 Lt';}.b{fill:none;stroke:#b6add6;stroke-linecap:round;stroke-width:2px;}</style></defs><g transform="translate(-535.5 -12239)"><path d="M8.82,1.908c6.012,0,8.6-2.988,8.6-7.452,0-4.32-2.412-5.94-6.192-7.236l-2.52-.828C5.8-14.58,4.86-15.66,4.86-18.108s1.764-4,4.9-4a14.79,14.79,0,0,1,6.372,1.4v-2.556a13.154,13.154,0,0,0-6.264-1.4c-5.328,0-7.992,2.844-7.992,6.8,0,3.924,2.016,5.76,5.616,6.948l2.52.864c3.1,1.008,4.356,2.088,4.356,4.716,0,2.808-1.728,4.644-5.688,4.644A15.817,15.817,0,0,1,1.512-2.376V.18A14.656,14.656,0,0,0,8.82,1.908ZM27.468-.5c-2.2,0-3.6-1.044-3.6-3.1,0-2.2,1.152-3.132,3.456-3.384l4.392-.468v5.58A6.5,6.5,0,0,1,27.468-.5Zm-.756,2.3A6.378,6.378,0,0,0,31.788-.18h.18l.324,1.62h2.376V-12.312c0-3.852-2.34-5.58-6.516-5.58a14.578,14.578,0,0,0-5.688,1.044v2.088A17.04,17.04,0,0,1,27-15.372c3.42,0,4.716.792,4.716,3.744v1.98l-5.148.612c-3.636.432-5.76,2.2-5.76,5.508C20.808.036,23.292,1.8,26.712,1.8Zm13.464-.36h2.916V-13.968a13.449,13.449,0,0,1,5.328-1.4c3.024,0,3.852.972,3.852,3.276V1.44h2.916V-12.708c0-3.672-1.8-5.184-5.508-5.184a12.459,12.459,0,0,0-6.552,2.016h-.18v-1.656H40.176ZM68.328-.612c-3.384,0-5.688-1.692-5.688-7.02v-.756c0-5.148,2.2-7.02,5.8-7.02a7.977,7.977,0,0,1,4.572,1.224V-2.232A7.054,7.054,0,0,1,68.328-.612ZM67.464,1.8A7.754,7.754,0,0,0,73.008-.108h.18l.324,1.548H75.96v-27.4H73.008v9.324a9.531,9.531,0,0,0-4.968-1.26c-4.9,0-8.46,2.988-8.46,9.9v.5C59.58-.5,63.684,1.8,67.464,1.8ZM89.028-.612c-3.168,0-5.652-1.728-5.652-7.02v-.936c0-4.464,2.124-6.912,5.58-6.912,3.1,0,5.652,1.728,5.652,7.02v.936C94.608-3.024,92.484-.612,89.028-.612ZM88.956,1.8c5.148,0,8.64-3.6,8.64-9.648v-.54c0-6.012-3.24-9.5-8.6-9.5-5.112,0-8.6,3.6-8.6,9.612V-7.7C80.388-1.656,83.592,1.8,88.956,1.8Zm13.14-.36h2.952v-27.4H102.1Zm8.712,0h2.952v-27.4h-2.952Zm43.524-25.668h-23.04v2.448h20.016v3.24a61.166,61.166,0,0,1-1.188,12.6l2.88.468a70.651,70.651,0,0,0,1.332-14.544ZM158.4.9V-1.548H142.632v-12.1h-2.916v12.1H128.16V.9Zm7.632-23.652H179.1v-2.412H163.116V-9.972h2.628a92.851,92.851,0,0,0,17.064-1.4l-.252-2.376a88.177,88.177,0,0,1-16.524,1.3Zm.324,16.7v2.412h19.368v9.4h2.916V-6.048ZM188.64-7.812V-27.684h-2.916V-7.812Zm7.632,9.252h2.808V-20.088h.108L211.968,1.44H215.1V-24.228h-2.772V-3.672h-.108L199.836-24.228h-3.564ZM228.24-15.516c3.1,0,4.68,1.728,4.68,5.868h-9.864C223.344-14.148,225.864-15.516,228.24-15.516ZM229.068,1.8A11.317,11.317,0,0,0,235.44.036v-2.2A12.465,12.465,0,0,1,229.5-.72c-4.032,0-6.3-1.836-6.444-6.588H235.98V-8.964c0-5.9-2.448-8.928-7.632-8.928-4.392,0-8.28,2.952-8.28,9.576v.54C220.068-1.836,223.092,1.8,229.068,1.8ZM247.86-.612c-3.168,0-5.652-1.728-5.652-7.02v-.936c0-4.464,2.124-6.912,5.58-6.912,3.1,0,5.652,1.728,5.652,7.02v.936C253.44-3.024,251.316-.612,247.86-.612ZM247.788,1.8c5.148,0,8.64-3.6,8.64-9.648v-.54c0-6.012-3.24-9.5-8.6-9.5-5.112,0-8.6,3.6-8.6,9.612V-7.7C239.22-1.656,242.424,1.8,247.788,1.8Zm17.28-.18h2.916V-24.66H266.4l-6.084,2.844v1.764l4.752-1.116Z" transform="translate(536 12302)"/><path d="M28.224,4.644V2.556H7.848V-4.788H5.4V4.644Zm1.764-20.16c-5.256-.576-12.132-5.04-12.132-9.648v-1.4h-2.52v1.4c0,4.572-6.48,9.072-12.1,9.684l1.188,1.908c6.048-1.152,10.908-5.256,12.132-8.244C18-18.792,22.9-14.724,28.8-13.572ZM31.68-7.74V-9.828H17.748v-5.58H15.3v5.58H1.44V-7.74Zm6.3,2.988v2.088H58.464V6.012h2.448V-4.752ZM58.32-17.028H41.076v-7.02H58.32Zm6.48,8.5V-10.62H50.868v-4.32h9.9v-11.2H38.628v11.2H48.42v4.32H34.56v2.088ZM89.964,4.752V-7.38c3.78-.216,7.992-.468,10.44-.792l-.216-1.944c-3.312.36-7.344.576-11.3.72-3.636.144-7.308.18-11.3.18l.4,2.232c3.168-.072,6.336-.108,9.54-.252V4.752ZM105.012,5.76V-27.72h-2.448V5.76Zm-10.3-24.84c0,2.916-2.808,4.644-6.192,4.644-3.348,0-6.192-1.728-6.192-4.644,0-3.06,2.844-4.752,6.192-4.752C91.908-23.832,94.716-22.14,94.716-19.08Zm2.376,0c0-4.176-3.564-6.876-8.568-6.876-4.968,0-8.568,2.7-8.568,6.876,0,4.032,3.6,6.768,8.568,6.768C93.528-12.312,97.092-15.048,97.092-19.08Zm33.192,1.944c0-4.824-3.816-7.776-8.712-7.776-4.788,0-8.712,3.168-8.712,7.776,0,4.32,3.816,7.632,8.712,7.632C126.324-9.5,130.284-12.564,130.284-17.136Zm-2.484,0c0,3.276-2.88,5.508-6.228,5.508-3.42,0-6.228-2.268-6.228-5.508,0-3.312,2.88-5.616,6.228-5.616C125.028-22.752,127.8-20.592,127.8-17.136Zm7.92-10.584V5.76h2.448V-27.72ZM133.38-4.9c-2.268.288-6.948.576-11.52.756-4.14.216-8.208.288-10.692.252l.432,2.232c2.52-.036,6.408-.144,10.368-.324,4.284-.252,8.928-.54,11.628-.864Zm35.244-8.64c0,5.544-2.3,9.54-5.8,9.54s-5.76-4-5.76-9.54c0-5.58,2.268-9.576,5.76-9.576S168.624-19.116,168.624-13.536Zm-13.968-.036c0,7.128,2.916,11.736,8.172,11.736S171-6.444,171-13.536c0-7.128-2.916-11.736-8.172-11.736S154.656-20.664,154.656-13.572Zm24.264.972V5.76h2.448V-27.72H178.92v13.032h-6.336V-12.6Zm28.512,8.208c-4.5-2.52-8.928-7.956-8.928-13.932v-6.264h-2.52v6.336c0,5.724-4.284,11.88-9,14.76l1.692,1.908c4-3.06,7.344-7.164,8.568-11.448,1.368,4.212,5.436,8.388,8.568,10.584Zm7.2,10.152V-27.72h-2.448V5.76ZM250.56,1.08V-1.008H220.32V1.08Zm-1.3-11.484C244.08-11.628,236.7-16.992,236.7-22.32V-24.7h-2.52v2.376c0,5.328-7.02,10.692-12.492,11.844L223.02-8.5c6.264-1.836,11.376-6.732,12.384-9.828,1.188,3.132,6.516,7.992,12.456,9.9ZM281.736,4.572V2.484H261.9V-5.148h-2.448v9.72Zm-1.008-7.884V-27.72H278.28v9.612h-6.336v2.088h6.336V-3.312ZM269.352-17.82H257.616v-4.824h12.168v-2.088H255.168v16.6a100.438,100.438,0,0,0,16.848-.936l-.288-1.98a91.2,91.2,0,0,1-14.112.828V-15.8h11.736ZM316.8,1.44V-.648H286.56V1.44Zm-5.112-16.488v-1.98H293.04V-22.32h19.62v-2.088H290.592V-7.272H313.02V-9.36H293.04v-5.688Z" transform="translate(536 12441)"/><text class="a" transform="translate(536 12257)"><tspan x="0" y="0">APP</tspan></text><path d="M28.44,4.716V2.268H8.1V-4.824H5.184v9.54ZM30.2-15.8c-5.22-.468-12.1-4.788-12.1-9.468V-26.64H15.084v1.368c0,4.644-6.3,8.892-12.06,9.5L4.392-13.32c5.76-1.044,10.836-4.932,12.168-8.136,1.512,3.24,6.732,7.128,12.276,8.136ZM31.68-7.488V-9.936H18v-5.472H15.084v5.472H1.44v2.448Zm6.156,2.412v2.412h20.3v8.64h2.916V-5.076ZM58-17.208H41.364v-6.624H58Zm6.8,8.784v-2.448H51.084V-14.8h9.828V-26.208H38.448V-14.8h9.72v3.924H34.56v2.448ZM89.928,4.752V-6.876c3.816-.216,8.136-.468,10.692-.828l-.144-2.268c-3.24.36-7.488.612-11.664.756-3.708.144-7.344.108-11.34.108l.468,2.592c2.952-.036,5.94-.072,9.072-.216V4.752Zm4.608-23.616c0,2.952-2.592,4.644-5.94,4.644s-5.976-1.692-5.976-4.644c0-3.06,2.628-4.752,5.976-4.752S94.536-21.924,94.536-18.864ZM105.408,5.76V-27.72h-2.916V5.76ZM97.38-18.864c0-4.284-3.6-7.2-8.784-7.2s-8.784,2.916-8.784,7.2c0,4.176,3.6,7.092,8.784,7.092C93.744-11.772,97.38-14.688,97.38-18.864Zm32.832,1.692c0-4.9-3.78-7.956-8.712-7.956-4.86,0-8.712,3.276-8.712,7.956,0,4.5,3.78,7.776,8.712,7.776C126.324-9.4,130.212-12.42,130.212-17.172Zm-2.844,0c0,3.168-2.7,5.328-5.868,5.328-3.24,0-5.9-2.2-5.9-5.328a5.664,5.664,0,0,1,5.9-5.472C124.776-22.644,127.368-20.52,127.368-17.172Zm8.1-10.548V5.76h2.916V-27.72Zm-2.2,22.572c-2.448.324-6.8.576-11.448.756-4.068.216-8.028.288-10.872.252l.5,2.556c2.556-.036,6.228-.144,10.152-.324,4.248-.216,9.036-.5,11.916-.864Zm35.244-8.388c0,5.472-2.232,9.288-5.544,9.288s-5.544-3.816-5.544-9.288c0-5.508,2.232-9.324,5.544-9.324S168.516-19.044,168.516-13.536Zm-14-.036c0,7.128,3.06,11.844,8.46,11.844,5.112,0,8.1-4.212,8.388-10.656h7.164V5.76h2.916V-27.72h-2.916v12.852H171.36C171-21.2,168.048-25.38,162.972-25.38,157.572-25.38,154.512-20.628,154.512-13.572Zm53.064,9.036c-4.608-2.736-8.676-8.208-8.676-14.328V-24.8h-2.952v6.048c0,5.94-4.032,12.024-8.928,15.084l1.908,2.2c3.888-2.772,7.344-6.876,8.568-11.052,1.3,4.032,5.22,8.172,8.244,10.224Zm7.2,10.3V-27.72H211.86V5.76ZM250.56,1.152V-1.3H220.32V1.152Zm-1.116-11.628c-5.148-1.152-12.492-6.336-12.492-11.808v-2.664h-3.024v2.664c0,5.472-6.948,10.656-12.42,11.7l1.548,2.52c5.832-1.656,11.16-6.408,12.348-9.828,1.368,3.42,6.8,8.172,12.42,9.864Zm8.316.432V-15.66H269.5v-2.376H257.76V-22.68h12.276v-2.412H254.88V-7.6H257.9A82.7,82.7,0,0,0,272.2-8.532l-.4-2.376a64.341,64.341,0,0,1-11.808.864ZM281.736,4.644V2.2H262.26V-5.328h-2.916V4.644ZM280.8-3.312V-27.72h-2.916v9.468h-6.048V-15.8h6.048V-3.312Zm36,4.788V-.972H286.56V1.476ZM312.192-14.76v-2.448H293.184v-4.86H312.84v-2.448H290.268V-7.092H313.2V-9.54H293.184v-5.22Z" transform="translate(536 12503)"/><path d="M28.188,4.752V2.016H8.532V-4.9H5.148V4.752Zm2.052-20.7c-4.932-.4-11.88-4.68-11.88-9.432V-26.6H14.832v1.224c0,4.752-6.264,8.856-11.844,9.432L4.5-13.32c5.472-.9,10.62-4.5,12.06-7.92,1.548,3.42,6.984,7.056,12.132,7.956Zm1.44,8.532v-2.772H18.216v-5H14.832v5H1.44v2.772Zm6.228,2.448v2.736h19.8V5.9h3.384V-4.968Zm19.62-12.744h-15.7V-23.8h15.7ZM64.8-8.244v-2.772H51.3v-4h9.648V-26.5h-22.5v11.484h9.468v4H34.56v2.772ZM93.888-18.9c0,2.556-2.3,4.248-5.364,4.248-3.024,0-5.364-1.692-5.364-4.248,0-2.628,2.34-4.356,5.364-4.356S93.888-21.528,93.888-18.9ZM90.18,4.752V-6.66c3.672-.216,7.74-.468,10.3-.828l-.36-2.7c-3.168.36-6.984.576-11.412.756-3.708.18-7.452.216-11.376.216l.5,2.916c2.844-.036,5.76-.072,8.964-.18V4.752Zm15.3,1.008V-27.72H102.1V5.76Zm-8.1-24.624c0-4.32-3.636-7.272-8.856-7.272s-8.82,2.952-8.82,7.272c0,4.14,3.6,7.128,8.82,7.128C93.672-11.736,97.38-14.724,97.38-18.864Zm33.048,1.692c0-4.788-3.816-7.884-8.784-7.884-4.9,0-8.712,3.276-8.712,7.884,0,4.536,3.78,7.632,8.712,7.632C126.54-9.54,130.428-12.528,130.428-17.172Zm4.824-10.548V5.76H138.6V-27.72ZM127.08-17.208c0,2.916-2.52,4.824-5.436,4.824-2.952,0-5.364-1.944-5.364-4.824a5.125,5.125,0,0,1,5.364-5C124.668-22.212,127.08-20.268,127.08-17.208ZM133.092-5.4c-2.664.324-6.624.576-11.34.756-3.96.216-7.884.252-11.088.252l.54,2.88c2.664-.036,6.192-.108,10.008-.288,4.248-.216,9.18-.54,12.24-.936Zm34.956-8.1c0,5.148-1.8,8.892-5.184,8.892-3.42,0-5.148-3.744-5.148-8.892,0-5.184,1.728-8.928,5.148-8.928C166.248-22.428,168.048-18.684,168.048-13.5Zm-13.788-.036c0,6.66,2.664,11.844,8.6,11.844,5.508,0,8.136-4.5,8.5-10.476h6.8V5.76h3.384V-27.72h-3.384v12.672h-6.8c-.4-5.9-3.06-10.3-8.5-10.3C156.924-25.344,154.26-20.16,154.26-13.536Zm53.28,8.712a17.047,17.047,0,0,1-8.388-14.4v-5.544H195.66v5.688a18.381,18.381,0,0,1-8.6,15.156L189.18-1.4a20.962,20.962,0,0,0,8.244-10.836c1.26,3.888,5.112,7.884,8.1,9.936ZM214.92,5.76V-27.72h-3.384V5.76Zm35.64-4.536V-1.548H220.32V1.224Zm-.936-11.988c-5.112-1.008-12.42-5.976-12.42-11.556v-2.628h-3.492v2.628c0,5.616-6.912,10.476-12.384,11.448l1.728,2.736c5.436-1.4,11.016-5.652,12.384-9.432,1.548,3.744,7.092,7.992,12.348,9.468Zm8.6.288v-5h10.944v-2.7H258.228v-4.248H270.18v-2.736h-15.3V-7.7h3.1a78.621,78.621,0,0,0,14.508-.936l-.36-2.664a66.643,66.643,0,0,1-12.168.828ZM281.772,4.716V1.944H262.656V-5.508h-3.384V4.716Zm-.864-8.064V-27.72h-3.384v9.4h-5.9v2.808h5.9V-3.348ZM316.8,1.512V-1.26H286.56V1.512Zm-4.716-16.128v-2.7h-18.5V-21.78h19.26v-2.772H290.2v17.46h22.968V-9.864H293.58v-4.752Z" transform="translate(536 12565)"/><path d="M28.4,5.148V1.98H9.036v-6.8H5.112V5.148ZM31.968-7.2v-3.168H18.5V-15.48H14.58v5.112H1.152V-7.2Zm-1.332-9.324c-4.86-.288-11.988-4.572-11.988-9.54v-1.224H14.58v1.224c0,4.968-6.3,8.928-11.988,9.54l1.692,3.06c5.292-.864,10.728-4.284,12.312-7.992,1.62,3.744,7.416,7.236,12.312,8.028ZM57.06-18.432H42.3v-5.544H57.06ZM37.872-5.364V-2.2H57.2V6.192h3.924V-5.364ZM60.984-15.3V-27.144H38.376V-15.3h9.288v3.672H34.272V-8.46H65.088v-3.168h-13.5V-15.3ZM93.06-19.44c0,2.2-1.836,3.744-4.716,3.744-2.736,0-4.572-1.548-4.572-3.744,0-2.232,1.872-3.888,4.572-3.888C91.152-23.328,93.06-21.672,93.06-19.44ZM90.576,5.076V-6.8c3.528-.18,7.272-.432,9.864-.792l-.288-2.988c-3.168.36-6.84.576-11.556.792-3.888.18-7.7.18-11.7.18l.612,3.24c2.736,0,5.76-.072,9.108-.216V5.076Zm15.156-33.12h-3.924V6.084h3.924Zm-8.784,8.6c0-3.816-3.348-7.056-8.6-7.056-5.148,0-8.5,3.24-8.5,7.056,0,3.744,3.348,6.984,8.5,6.984S96.948-15.7,96.948-19.44ZM133.308-5.8c-2.952.324-6.768.576-11.664.792-3.96.216-7.7.216-11.3.18l.576,3.384A216.953,216.953,0,0,0,133.6-2.628Zm5.832-22.248h-3.924V6.084h3.924Zm-12.816,10.8c0,2.736-2.3,4.5-4.968,4.5a4.6,4.6,0,0,1-4.9-4.5,4.735,4.735,0,0,1,4.9-4.752A4.669,4.669,0,0,1,126.324-17.244Zm3.96.036c0-4.788-3.888-8.136-8.928-8.136-4.932,0-8.748,3.456-8.748,8.136,0,4.644,3.78,7.776,8.748,7.776C126.36-9.432,130.284-12.492,130.284-17.208Zm37.4,3.708c0,5.436-2.016,8.964-4.932,8.964-2.808,0-4.824-3.528-4.824-8.964,0-5.472,2.016-9,4.824-9C165.672-22.5,167.688-18.972,167.688-13.5Zm-13.608-.036c0,7.2,3.2,12.132,8.676,12.132,5.544,0,8.712-4.932,8.712-12.1,0-7.2-3.168-12.168-8.712-12.168C157.284-25.668,154.08-20.7,154.08-13.536Zm27.828,19.62V-28.044h-3.96V-15.3h-5.22v3.24h5.22V6.084ZM207.72-4.752a17.209,17.209,0,0,1-8.172-14.976v-5.364H195.48v5.58a18.422,18.422,0,0,1-8.64,15.588l2.412,2.88a19.891,19.891,0,0,0,8.316-10.584A21.8,21.8,0,0,0,205.38-1.8Zm7.308,10.836V-28.044H211.1V6.084Zm35.028-18.216c-5.148-.936-12.528-5.724-12.528-11.556v-2.268h-4.1v2.268c0,5.868-6.948,10.512-12.528,11.412l1.944,3.2c5.148-1.26,11.016-5.148,12.6-9.36,1.764,4.14,7.524,8.028,12.564,9.36Zm.792,13.716V-1.584H220.032V1.584ZM282.06,5.112V1.944H262.908V-5.58H259.02V5.112Zm-.828-8.352v-24.8h-3.924v9.324h-6.516v3.276h6.516v12.2ZM268.488-18.5H258.372v-4.068h11.3V-25.74H254.448V-7.956h3.528c6.408,0,10.512-.252,14-1.08l-.54-2.988a65.921,65.921,0,0,1-13.068.936v-4.32h10.116Zm48.6,17.136H286.272V1.764h30.816Zm-5.112-13.68v-3.1h-17.82v-4.14h18.972v-3.132h-22.9V-7.6h23.22v-3.1h-19.3v-4.356Z" transform="translate(536 12627)"/><path d="M28.4,5.184V1.656H9.54v-6.48H5.076V5.184ZM31.968-6.588v-3.6H18.792v-4.9H14.328v4.9H1.152v3.6ZM16.6-20.7c1.728,3.924,7.668,7.092,12.24,7.776l1.908-3.528c-4.9-.288-11.808-4.32-11.808-9.36v-1.3H14.292v1.3c0,5.04-6.084,8.748-11.808,9.36L4.356-12.96C9.288-13.68,14.868-16.776,16.6-20.7Zm39.852,2.052H42.84v-5.04H56.448ZM37.908-5.508v3.564H56.664V6.12h4.464V-5.508Zm23.076-9.684V-27.144H38.376v11.952h9v3.312h-13.1v3.6H65.088v-3.6H51.84v-3.312Zm31.932-4c0,2.016-1.764,3.456-4.464,3.456-2.556,0-4.356-1.44-4.356-3.456,0-2.052,1.836-3.6,4.356-3.6C91.08-22.788,92.916-21.24,92.916-19.188ZM90.828,5.076V-6.444c3.276-.18,6.66-.468,9.18-.792l-.36-3.456c-4.824.5-13.752,1.044-22.428,1.044l.648,3.672c2.52,0,5.148-.072,8.424-.216V5.076Zm15.048-33.12h-4.428V6.084h4.428Zm-8.5,8.892c0-4.212-3.564-7.272-8.928-7.272-5.328,0-8.82,3.06-8.82,7.272,0,4.1,3.492,7.092,8.82,7.092C93.672-12.06,97.38-15.048,97.38-19.152Zm14.544,1.512c0,4.752,3.744,8.172,9.5,8.172,5.8,0,9.468-3.42,9.468-8.172,0-4.788-3.672-8.208-9.468-8.208C115.668-25.848,111.924-22.428,111.924-17.64Zm27.468-10.4h-4.428V6.084h4.428ZM133.164-6.228c-3.06.36-7.164.684-11.448.828-3.852.144-7.128.18-11.088.18l.648,3.852c2.88.036,6.948-.108,10.728-.288,3.636-.18,8.28-.576,11.52-.972ZM116.532-17.676c0-2.448,1.836-4.392,4.9-4.392,3.1,0,4.932,1.944,4.932,4.392,0,2.52-1.836,4.464-4.932,4.464C118.368-13.212,116.532-15.156,116.532-17.676ZM167.364-13.5c0,5.364-1.908,8.568-4.536,8.568-2.556,0-4.428-3.2-4.428-8.568s1.872-8.6,4.428-8.6C165.456-22.1,167.364-18.864,167.364-13.5Zm-13.356,0c0,7.164,3.276,12.168,8.82,12.168,5.58,0,8.82-5.04,8.82-12.132,0-7.2-3.24-12.24-8.82-12.24C157.284-25.7,154.008-20.664,154.008-13.5ZM182.016,6.084V-28.044h-4.5v12.528h-5v3.78h5V6.084ZM208.08-5C202.932-8.352,200.2-13.428,200.2-20.2v-4.968h-4.644v5.22a17.893,17.893,0,0,1-8.46,15.732l2.736,3.276a18.588,18.588,0,0,0,8.136-10.116,20.42,20.42,0,0,0,7.524,9.4Zm7.056,11.088V-28.044h-4.5V6.084ZM250.2-12.348c-5.184-.864-12.384-5.364-12.384-11.34v-2.268h-4.68v2.268c0,6.048-6.8,10.548-12.384,11.34l2.124,3.636c4.68-1.008,10.8-4.644,12.564-9.252,1.944,4.5,7.848,8.028,12.492,9.108Zm.648,14V-1.908H220.032V1.656Zm8.172-16.74h9.432v-3.492H259.02V-22h10.764V-25.56H254.556V-7.488l3.24.072a89.077,89.077,0,0,0,13.536-.9l-.468-3.42a59.19,59.19,0,0,1-11.844.684ZM281.34-3.276V-28.044h-4.5v9.4h-6.408v3.636h6.408V-3.276Zm.756,8.46V1.62H263.124V-5.508H258.66V5.184Zm34.992-6.912H286.272V1.8h30.816Zm-4.68-12.744V-18H294.66v-3.816h18.576v-3.528H290.2V-7.236H313.56v-3.528h-18.9v-3.708Z" transform="translate(536 12689)"/><line class="b" x2="70" transform="translate(536.5 12369.5)"/></g></svg>