<svg xmlns="http://www.w3.org/2000/svg" xmlns:xlink="http://www.w3.org/1999/xlink" width="212" height="212" viewBox="0 0 212 212"><defs><style>.a,.e{opacity:0.8;}.a{mix-blend-mode:screen;}.a,.f{isolation:isolate;}.a,.e,.g{fill:url(#a);}.b{fill:#fff;}.c{fill:#c9c9c9;}.d{fill:#818181;}.f{clip-path:url(#g);}.h{filter:url(#b);}</style><linearGradient id="a" x1="0.439" y1="0.302" x2="0.459" y2="0.702" gradientUnits="objectBoundingBox"><stop offset="0" stop-color="#fff"/><stop offset="1" stop-color="#fff"/></linearGradient><filter id="b" x="0" y="0" width="212" height="212" filterUnits="userSpaceOnUse"><feOffset dy="5" input="SourceAlpha"/><feGaussianBlur stdDeviation="10.5" result="c"/><feFlood flood-opacity="0.11"/><feComposite operator="in" in2="c"/><feComposite in="SourceGraphic"/></filter><clipPath id="g"><rect class="a" width="13.392" height="44.73" rx="6.696" transform="translate(41.098 31.629) rotate(135)"/></clipPath></defs><g transform="translate(-358.5 -7956.5)"><g class="h" transform="matrix(1, 0, 0, 1, 358.5, 7956.5)"><path class="b" d="M26,0h97a26,26,0,0,1,26,26v97a26,26,0,0,1-26,26H26A26,26,0,0,1,0,123V26A26,26,0,0,1,26,0Z" transform="translate(31.5 26.5)"/></g><rect class="c" width="9" height="17" rx="4.5" transform="translate(500 8030)"/><rect class="c" width="5" height="25" rx="2.5" transform="translate(500 8056)"/><rect class="c" width="75" height="84" rx="12" transform="translate(427 8015)"/><rect class="d" width="58" height="66" rx="8" transform="translate(436 8024)"/><rect class="c" width="38" height="32" transform="translate(446 7983)"/><rect class="c" width="38" height="33" transform="translate(446 8099)"/><g transform="translate(444.552 8035.305)"><rect class="e" width="13.392" height="44.73" rx="6.696" transform="translate(41.098 31.629) rotate(135)"/><path class="e" d="M6.7,0a6.7,6.7,0,0,1,6.7,6.7V29.015A6.7,6.7,0,0,1,0,29.015V6.7A6.7,6.7,0,0,1,6.7,0Z" transform="translate(2.66 2.66)"/><rect class="e" width="13.392" height="35.711" rx="6.696" transform="translate(25.044 2.66)"/><g class="f" transform="translate(0 0)"><rect class="g" width="13.392" height="35.711" rx="6.696" transform="translate(24.979 2.66)"/><rect class="g" width="13.392" height="35.711" rx="6.696" transform="translate(2.66 2.66)"/></g></g></g></svg>